<svg width="24" height="24" viewBox="0 0 24 24" fill="none" xmlns="http://www.w3.org/2000/svg">
<path fill-rule="evenodd" clip-rule="evenodd" d="M12 18.286C11.7348 18.286 11.4804 18.1807 11.2929 17.9931C11.1054 17.8056 11 17.5512 11 17.286L11 4.78601C11 4.52079 11.1054 4.26644 11.2929 4.0789C11.4804 3.89137 11.7348 3.78601 12 3.78601C12.2652 3.78601 12.5196 3.89137 12.7071 4.07891C12.8946 4.26644 13 4.52079 13 4.78601L13 17.286C13 17.5512 12.8946 17.8056 12.7071 17.9931C12.5196 18.1807 12.2652 18.286 12 18.286Z" fill="#DC2626"/>
<path fill-rule="evenodd" clip-rule="evenodd" d="M12 19.786C11.7348 19.786 11.4805 19.6806 11.293 19.493L6.79304 14.993C6.6054 14.8055 6.49993 14.5511 6.49984 14.2859C6.49975 14.0206 6.60503 13.7661 6.79254 13.5785C6.98005 13.3909 7.23442 13.2854 7.49969 13.2853C7.76496 13.2852 8.0194 13.3905 8.20704 13.578L12 17.372L15.793 13.579C15.9807 13.3915 16.2351 13.2862 16.5004 13.2863C16.7657 13.2864 17.02 13.3919 17.2075 13.5795C17.395 13.7672 17.5003 14.0216 17.5002 14.2869C17.5002 14.5521 17.3947 14.8065 17.207 14.994L12.707 19.494C12.5194 19.6812 12.2651 19.7862 12 19.786Z" fill="#DC2626"/>
</svg>
