<svg width="24" height="24" viewBox="0 0 24 24" fill="none" xmlns="http://www.w3.org/2000/svg">
<path fill-rule="evenodd" clip-rule="evenodd" d="M12 5.71399C12.2652 5.71399 12.5196 5.81935 12.7071 6.00688C12.8946 6.19442 13 6.44877 13 6.71399L13 19.214C13 19.4792 12.8946 19.7336 12.7071 19.9211C12.5196 20.1086 12.2652 20.214 12 20.214C11.7348 20.214 11.4804 20.1086 11.2929 19.9211C11.1054 19.7336 11 19.4792 11 19.214L11 6.71399C11 6.44877 11.1054 6.19442 11.2929 6.00688C11.4804 5.81935 11.7348 5.71399 12 5.71399Z" fill="#16A34A"/>
<path fill-rule="evenodd" clip-rule="evenodd" d="M12 4.21399C12.2652 4.21405 12.5195 4.31944 12.707 4.50699L17.207 9.00699C17.3946 9.1945 17.5001 9.44886 17.5002 9.71413C17.5003 9.9794 17.395 10.2338 17.2075 10.4215C17.02 10.6091 16.7656 10.7146 16.5003 10.7147C16.235 10.7148 15.9806 10.6095 15.793 10.422L12 6.62799L8.20696 10.421C8.01932 10.6085 7.76488 10.7138 7.49961 10.7137C7.23434 10.7136 6.97997 10.6081 6.79246 10.4205C6.60495 10.2328 6.49966 9.97841 6.49976 9.71314C6.49985 9.44787 6.60532 9.1935 6.79296 9.00599L11.293 4.50599C11.4806 4.31881 11.7349 4.21378 12 4.21399Z" fill="#16A34A"/>
</svg>
