<svg width="24" height="24" viewBox="0 0 24 24" fill="none" xmlns="http://www.w3.org/2000/svg">
<path d="M4.8765 4.599C5.02459 3.93281 5.3954 3.33702 5.92772 2.90997C6.46003 2.48291 7.12205 2.25012 7.8045 2.25H16.1948C16.8773 2.24995 17.5395 2.48267 18.072 2.90973C18.6045 3.3368 18.9754 3.93269 19.1235 4.599L19.6013 6.75H20.25C20.4489 6.75 20.6397 6.82902 20.7803 6.96967C20.921 7.11032 21 7.30109 21 7.5C21 7.69891 20.921 7.88968 20.7803 8.03033C20.6397 8.17098 20.4489 8.25 20.25 8.25H19.935L20.1825 9.36375C20.6568 9.6215 21.0527 10.0024 21.3286 10.4664C21.6045 10.9304 21.7501 11.4602 21.75 12V19.5C21.75 20.0967 21.5129 20.669 21.091 21.091C20.669 21.5129 20.0967 21.75 19.5 21.75H18.75C18.1533 21.75 17.581 21.5129 17.159 21.091C16.7371 20.669 16.5 20.0967 16.5 19.5V18.75H7.5V19.5C7.5 20.0967 7.26295 20.669 6.84099 21.091C6.41903 21.5129 5.84674 21.75 5.25 21.75H4.5C3.90326 21.75 3.33097 21.5129 2.90901 21.091C2.48705 20.669 2.25 20.0967 2.25 19.5V12C2.24994 11.4602 2.39552 10.9304 2.67139 10.4664C2.94727 10.0024 3.34322 9.6215 3.8175 9.36375L4.065 8.25H3.75C3.55109 8.25 3.36032 8.17098 3.21967 8.03033C3.07902 7.88968 3 7.69891 3 7.5C3 7.30109 3.07902 7.11032 3.21967 6.96967C3.36032 6.82902 3.55109 6.75 3.75 6.75H4.398L4.8765 4.599ZM17.6595 4.9245C17.5854 4.59128 17.3999 4.29329 17.1336 4.07975C16.8673 3.86621 16.5361 3.74989 16.1948 3.75H7.80525C7.4639 3.74989 7.13271 3.86621 6.8664 4.07975C6.60009 4.29329 6.41457 4.59128 6.3405 4.9245L5.43525 9H18.5648L17.6595 4.9245ZM18 18.75V19.5C18 19.6989 18.079 19.8897 18.2197 20.0303C18.3603 20.171 18.5511 20.25 18.75 20.25H19.5C19.6989 20.25 19.8897 20.171 20.0303 20.0303C20.171 19.8897 20.25 19.6989 20.25 19.5V18.75H18ZM3.75 18.75V19.5C3.75 19.6989 3.82902 19.8897 3.96967 20.0303C4.11032 20.171 4.30109 20.25 4.5 20.25H5.25C5.44891 20.25 5.63968 20.171 5.78033 20.0303C5.92098 19.8897 6 19.6989 6 19.5V18.75H3.75ZM5.25 10.5C4.85218 10.5 4.47064 10.658 4.18934 10.9393C3.90804 11.2206 3.75 11.6022 3.75 12V17.25H20.25V12C20.25 11.6022 20.092 11.2206 19.8107 10.9393C19.5294 10.658 19.1478 10.5 18.75 10.5H5.25ZM10.125 14.25C9.92609 14.25 9.73532 14.329 9.59467 14.4697C9.45402 14.6103 9.375 14.8011 9.375 15C9.375 15.1989 9.45402 15.3897 9.59467 15.5303C9.73532 15.671 9.92609 15.75 10.125 15.75H13.875C14.0739 15.75 14.2647 15.671 14.4053 15.5303C14.546 15.3897 14.625 15.1989 14.625 15C14.625 14.8011 14.546 14.6103 14.4053 14.4697C14.2647 14.329 14.0739 14.25 13.875 14.25H10.125ZM8.25 13.125C8.25 13.4234 8.13147 13.7095 7.9205 13.9205C7.70952 14.1315 7.42337 14.25 7.125 14.25C6.82663 14.25 6.54048 14.1315 6.3295 13.9205C6.11853 13.7095 6 13.4234 6 13.125C6 12.8266 6.11853 12.5405 6.3295 12.3295C6.54048 12.1185 6.82663 12 7.125 12C7.42337 12 7.70952 12.1185 7.9205 12.3295C8.13147 12.5405 8.25 12.8266 8.25 13.125ZM16.875 14.25C17.1734 14.25 17.4595 14.1315 17.6705 13.9205C17.8815 13.7095 18 13.4234 18 13.125C18 12.8266 17.8815 12.5405 17.6705 12.3295C17.4595 12.1185 17.1734 12 16.875 12C16.5766 12 16.2905 12.1185 16.0795 12.3295C15.8685 12.5405 15.75 12.8266 15.75 13.125C15.75 13.4234 15.8685 13.7095 16.0795 13.9205C16.2905 14.1315 16.5766 14.25 16.875 14.25Z" fill="black"/>
</svg>
