<svg width="24" height="24" viewBox="0 0 24 24" fill="none" xmlns="http://www.w3.org/2000/svg">
<path d="M3.41157 21.1288C2.97531 21.1288 2.63092 20.9886 2.37839 20.708C2.1456 20.4489 2.02027 20.1089 2.0024 19.6881L2 19.5813V4.54797C2 4.07171 2.12613 3.69479 2.37839 3.41719C2.61119 3.16066 2.92251 3.02253 3.31237 3.0028L3.41197 3H14.1346C14.5652 3 14.9068 3.13893 15.1593 3.41679C15.3921 3.67279 15.5175 4.01371 15.5353 4.43957L15.5373 4.54757V7.18352H20.5972C20.9946 7.18352 21.316 7.30311 21.5616 7.54231L21.6216 7.60471C21.8547 7.86337 21.98 8.20323 21.9976 8.62429L22 8.73108V19.5813C22 20.0517 21.8739 20.4273 21.6216 20.708C21.3888 20.9667 21.0799 21.1062 20.6948 21.1264L20.5968 21.1288H3.41157ZM15.5369 19.5813C15.5369 19.6426 15.5348 19.7022 15.5305 19.7601H20.1456C20.3102 19.7601 20.4322 19.7203 20.5116 19.6409C20.5796 19.5726 20.6184 19.4713 20.628 19.3369L20.6308 19.2669V9.04588C20.6308 8.87575 20.5911 8.75095 20.5116 8.67149C20.4436 8.60349 20.3443 8.56469 20.2136 8.55509L20.1456 8.55269L15.5369 8.55229V19.5813ZM13.6838 4.36917H3.86236C3.69223 4.36917 3.56744 4.40877 3.48797 4.48797C3.41997 4.55624 3.38117 4.65757 3.37157 4.79196L3.36917 4.86236V19.2669C3.36917 19.4367 3.40877 19.5614 3.48797 19.6409C3.55624 19.7089 3.65757 19.7477 3.79196 19.7573L3.86236 19.7601L5.80912 19.7597V17.2517C5.80912 16.9165 5.87846 16.6623 6.01712 16.4889L6.06032 16.4393C6.21232 16.282 6.43818 16.1963 6.73791 16.1821L6.8299 16.1801H10.7074C11.0586 16.1801 11.3165 16.2665 11.481 16.4393C11.6306 16.5967 11.7122 16.8347 11.7258 17.1533L11.7278 17.2513L11.7274 19.7597H13.6834C13.8479 19.7597 13.9698 19.7201 14.049 19.6409C14.117 19.5726 14.1559 19.4713 14.1658 19.3369L14.1682 19.2669V4.86236C14.1682 4.69223 14.1284 4.56744 14.049 4.48797C13.9698 4.40877 13.8483 4.36917 13.6838 4.36917ZM10.3418 17.2941H7.1955C7.0307 17.2941 6.9407 17.369 6.9255 17.5189L6.9235 17.5661L6.9231 19.7597H10.6134V17.5661C10.6134 17.4013 10.5386 17.3113 10.389 17.2961L10.3418 17.2941ZM18.7685 16.4521C18.945 16.4521 19.0406 16.5331 19.0553 16.6949L19.0573 16.7413V18.0677C19.0573 18.2445 18.9763 18.3402 18.8145 18.3549L18.7685 18.3569H17.3993C17.2281 18.3569 17.1352 18.276 17.1205 18.1141L17.1189 18.0677V16.7413C17.1189 16.5645 17.1976 16.4688 17.3549 16.4541L17.3993 16.4521H18.7685ZM18.7685 13.2042C18.945 13.2042 19.0406 13.2851 19.0553 13.447L19.0573 13.493V14.8194C19.0573 14.9962 18.9763 15.0919 18.8145 15.1066L18.7685 15.1086H17.3993C17.2281 15.1086 17.1352 15.0276 17.1205 14.8658L17.1189 14.8194V13.493C17.1189 13.3162 17.1976 13.2205 17.3549 13.2058L17.3993 13.2038L18.7685 13.2042ZM7.60349 12.515C7.81842 12.515 7.93401 12.6141 7.95028 12.8122L7.95228 12.8638V14.471C7.95228 14.6854 7.85322 14.8008 7.65509 14.8174L7.60349 14.8194H5.94552C5.74153 14.8194 5.63166 14.7204 5.61593 14.5226L5.61393 14.4706V12.8638C5.61393 12.6494 5.70806 12.5338 5.89632 12.517L5.94552 12.515H7.60349ZM11.5834 12.515C11.7978 12.515 11.9133 12.6141 11.9298 12.8122L11.9318 12.8638V14.471C11.9318 14.6854 11.8327 14.8008 11.6346 14.8174L11.583 14.8194H9.93344C9.72411 14.8194 9.61145 14.7204 9.59545 14.5226L9.59345 14.4706V12.8638C9.59345 12.6494 9.68998 12.5338 9.88304 12.517L9.93344 12.515H11.5834ZM18.7685 9.95546C18.945 9.95546 19.0406 10.0365 19.0553 10.1987L19.0573 10.2447V11.5714C19.0573 11.748 18.9763 11.8436 18.8145 11.8582L18.7685 11.8602H17.3993C17.2281 11.8602 17.1352 11.7793 17.1205 11.6174L17.1189 11.5714V10.2447C17.1189 10.0684 17.1976 9.97266 17.3549 9.95746L17.3993 9.95546H18.7685ZM7.60349 9.14748C7.81842 9.14748 7.93401 9.24668 7.95028 9.44507L7.95228 9.49627V11.1034C7.95228 11.3184 7.85322 11.434 7.65509 11.4502L7.60349 11.4522H5.94552C5.74153 11.4522 5.63166 11.3532 5.61593 11.155L5.61393 11.1034V9.49627C5.61393 9.28187 5.70806 9.16641 5.89632 9.14988L5.94552 9.14788L7.60349 9.14748ZM11.5834 9.14748C11.7978 9.14748 11.9133 9.24668 11.9298 9.44507L11.9318 9.49627V11.1034C11.9318 11.3184 11.8327 11.434 11.6346 11.4502L11.583 11.4522H9.93344C9.72411 11.4522 9.61145 11.3532 9.59545 11.155L9.59345 11.1034V9.49627C9.59345 9.28187 9.68998 9.16641 9.88304 9.14988L9.93344 9.14788L11.5834 9.14748ZM7.60349 5.78074C7.81842 5.78074 7.93401 5.87968 7.95028 6.07754L7.95228 6.12954V7.7363C7.95228 7.9507 7.85322 8.06617 7.65509 8.0827L7.60349 8.0851H5.94552C5.74153 8.0851 5.63166 7.98603 5.61593 7.7879L5.61393 7.7363V6.12914C5.61393 5.91474 5.70806 5.79928 5.89632 5.78274L5.94552 5.78074H7.60349ZM11.5834 5.78074C11.7978 5.78074 11.9133 5.87968 11.9298 6.07754L11.9318 6.12954V7.7363C11.9318 7.9507 11.8327 8.06617 11.6346 8.0827L11.583 8.0851H9.93344C9.72411 8.0851 9.61145 7.98603 9.59545 7.7879L9.59345 7.7363V6.12914C9.59345 5.91474 9.68998 5.79928 9.88304 5.78274L9.93344 5.78074H11.5834Z" fill="white"/>
</svg>
