<svg width="24" height="24" viewBox="0 0 24 24" fill="none" xmlns="http://www.w3.org/2000/svg">
<path d="M8.06698 2.0069C7.86765 2.03334 7.68662 2.13682 7.5627 2.29517L4.94368 5.58605L3.21406 4.43297C3.12887 4.37576 3.03322 4.33593 2.93259 4.31577C2.83197 4.29561 2.72836 4.29552 2.6277 4.31551C2.52704 4.33549 2.43132 4.37515 2.34603 4.43221C2.26074 4.48928 2.18755 4.56262 2.13068 4.64804C2.0738 4.73346 2.03435 4.82927 2.01459 4.92997C1.99483 5.03067 1.99515 5.13428 2.01552 5.23486C2.0359 5.33544 2.07594 5.431 2.13334 5.51607C2.19075 5.60113 2.26438 5.67403 2.35002 5.73057L4.65618 7.268C4.81781 7.37562 5.01418 7.41808 5.20584 7.38685C5.39749 7.35562 5.57023 7.25302 5.68933 7.09966L8.76421 3.25606C8.86206 3.13669 8.92171 2.99063 8.9354 2.83689C8.94909 2.68315 8.91618 2.52884 8.84095 2.39406C8.76572 2.25929 8.65167 2.15027 8.51362 2.08122C8.37558 2.01217 8.21995 1.98627 8.06698 2.0069ZM11.2379 4.31305V5.85049H22V4.31305H11.2379ZM8.06698 8.92536C7.86765 8.9518 7.68662 9.05529 7.5627 9.21363L4.94368 12.5045L3.21406 11.3514C3.04199 11.2368 2.83141 11.1951 2.62864 11.2357C2.42588 11.2763 2.24754 11.3958 2.13286 11.5678C2.01818 11.7399 1.97655 11.9505 2.01713 12.1532C2.05771 12.356 2.17718 12.5344 2.34925 12.649L4.65541 14.1865C4.81704 14.2941 5.01341 14.3365 5.20507 14.3053C5.39672 14.2741 5.56946 14.1715 5.68856 14.0181L8.76344 10.1745C8.86121 10.0552 8.92083 9.90923 8.93453 9.75558C8.94823 9.60192 8.91538 9.4477 8.84026 9.31296C8.76514 9.17822 8.65122 9.0692 8.51331 9.00008C8.3754 8.93095 8.21988 8.90492 8.06698 8.92536ZM11.2379 11.2315V12.769H22V11.2315H11.2379ZM8.06698 15.8438C7.86765 15.8703 7.68662 15.9738 7.5627 16.1321L4.94368 19.423L3.21406 18.2699C3.12886 18.2131 3.03331 18.1737 2.93286 18.1538C2.83241 18.134 2.72904 18.1341 2.62864 18.1542C2.42588 18.1948 2.24754 18.3142 2.13286 18.4863C2.01818 18.6584 1.97655 18.8689 2.01713 19.0717C2.05771 19.2745 2.17718 19.4528 2.34925 19.5675L4.65541 21.1049C4.81704 21.2126 5.01341 21.255 5.20507 21.2238C5.39672 21.1926 5.56946 21.09 5.68856 20.9366L8.76344 17.093C8.86121 16.9737 8.92083 16.8277 8.93453 16.674C8.94823 16.5204 8.91538 16.3662 8.84026 16.2314C8.76514 16.0967 8.65122 15.9877 8.51331 15.9185C8.3754 15.8494 8.21988 15.8234 8.06698 15.8438ZM11.2379 18.15V19.6874H22V18.15H11.2379Z" fill="white"/>
</svg>
