<svg width="24" height="24" viewBox="0 0 24 24" fill="none" xmlns="http://www.w3.org/2000/svg">
<path d="M12 2C17.523 2 22 6.477 22 12C22 17.523 17.523 22 12 22C6.477 22 2 17.523 2 12C2 6.477 6.477 2 12 2ZM12 4C9.87827 4 7.84344 4.84285 6.34315 6.34315C4.84285 7.84344 4 9.87827 4 12C4 14.1217 4.84285 16.1566 6.34315 17.6569C7.84344 19.1571 9.87827 20 12 20C14.1217 20 16.1566 19.1571 17.6569 17.6569C19.1571 16.1566 20 14.1217 20 12C20 9.87827 19.1571 7.84344 17.6569 6.34315C16.1566 4.84285 14.1217 4 12 4ZM15.833 7.337C15.9478 7.25673 16.0872 7.21946 16.2267 7.23171C16.3662 7.24396 16.497 7.30496 16.596 7.404C16.6947 7.50274 16.7553 7.63329 16.7668 7.77245C16.7783 7.91161 16.7401 8.05035 16.659 8.164C14.479 11.21 13.2797 12.8423 13.061 13.061C12.7796 13.3424 12.398 13.5005 12 13.5005C11.602 13.5005 11.2204 13.3424 10.939 13.061C10.6576 12.7796 10.4995 12.398 10.4995 12C10.4995 11.602 10.6576 11.2204 10.939 10.939C11.3123 10.5657 12.9437 9.365 15.833 7.337ZM17.5 11C17.7652 11 18.0196 11.1054 18.2071 11.2929C18.3946 11.4804 18.5 11.7348 18.5 12C18.5 12.2652 18.3946 12.5196 18.2071 12.7071C18.0196 12.8946 17.7652 13 17.5 13C17.2348 13 16.9804 12.8946 16.7929 12.7071C16.6054 12.5196 16.5 12.2652 16.5 12C16.5 11.7348 16.6054 11.4804 16.7929 11.2929C16.9804 11.1054 17.2348 11 17.5 11ZM6.5 11C6.76522 11 7.01957 11.1054 7.20711 11.2929C7.39464 11.4804 7.5 11.7348 7.5 12C7.5 12.2652 7.39464 12.5196 7.20711 12.7071C7.01957 12.8946 6.76522 13 6.5 13C6.23478 13 5.98043 12.8946 5.79289 12.7071C5.60536 12.5196 5.5 12.2652 5.5 12C5.5 11.7348 5.60536 11.4804 5.79289 11.2929C5.98043 11.1054 6.23478 11 6.5 11ZM8.818 7.404C8.91351 7.49625 8.98969 7.60659 9.0421 7.7286C9.09451 7.8506 9.1221 7.98182 9.12325 8.1146C9.1244 8.24738 9.0991 8.37906 9.04882 8.50195C8.99854 8.62485 8.92429 8.7365 8.83039 8.83039C8.7365 8.92429 8.62485 8.99854 8.50195 9.04882C8.37906 9.0991 8.24738 9.1244 8.1146 9.12325C7.98182 9.1221 7.8506 9.09451 7.7286 9.0421C7.60659 8.98969 7.49625 8.91351 7.404 8.818C7.22184 8.6294 7.12105 8.3768 7.12333 8.1146C7.1256 7.8524 7.23077 7.60159 7.41618 7.41618C7.60159 7.23077 7.8524 7.1256 8.1146 7.12333C8.3768 7.12105 8.6294 7.22184 8.818 7.404ZM12 5.5C12.2652 5.5 12.5196 5.60536 12.7071 5.79289C12.8946 5.98043 13 6.23478 13 6.5C13 6.76522 12.8946 7.01957 12.7071 7.20711C12.5196 7.39464 12.2652 7.5 12 7.5C11.7348 7.5 11.4804 7.39464 11.2929 7.20711C11.1054 7.01957 11 6.76522 11 6.5C11 6.23478 11.1054 5.98043 11.2929 5.79289C11.4804 5.60536 11.7348 5.5 12 5.5Z" fill="white"/>
</svg>
