<svg width="186" height="293" viewBox="0 0 186 293" fill="none" xmlns="http://www.w3.org/2000/svg">
<path d="M171.363 290.412H46.0665C41.1631 290.412 37.189 286.87 37.189 282.499V10.4976C37.189 6.12684 41.1631 2.58441 46.0665 2.58441H171.363C176.267 2.58441 180.241 6.12684 180.241 10.4976V282.499C180.241 286.87 176.267 290.412 171.363 290.412Z" fill="#EAE6ED"/>
<path d="M164.248 290.412H57.6752C53.1874 290.412 49.5495 287.17 49.5495 283.169V16.7694C49.5495 12.769 53.1874 9.52625 57.6752 9.52625H164.248C168.736 9.52625 172.374 12.769 172.374 16.7694V283.169C172.376 287.17 168.736 290.412 164.248 290.412Z" fill="#DCDAE0"/>
<path d="M81.3327 5.96523V287.035C81.3327 290.325 78.405 293 74.7785 293L9.55744 289.633C5.9309 289.633 3.00322 286.959 3.00322 283.667V9.33256C3.00322 6.04099 5.9309 3.36733 9.55744 3.36733L74.7785 0C78.405 0 81.3327 2.67366 81.3327 5.96523Z" fill="#BBC9DD"/>
<path d="M96.789 119.47L99.082 132.281L92.2275 131.439L96.789 119.47Z" fill="#F98875"/>
<path d="M82.4981 125.41C82.4981 125.41 82.398 148.93 101.077 156.226C119.755 163.521 129.507 150.333 129.507 150.333L124.887 136.997C124.887 136.997 110.336 137.387 107.502 134.862C104.669 132.336 98.0224 124.622 98.0224 124.622L82.4981 125.41Z" fill="#25559B"/>
<path d="M3.00322 51.5657C1.34484 51.5657 0 50.3669 0 48.8887V24.2971C0 22.8188 1.34484 21.6183 3.00322 21.6183C4.66161 21.6183 6.00835 22.8171 6.00835 24.2971V48.8887C6.00646 50.3669 4.66161 51.5657 3.00322 51.5657Z" fill="#DFDCE2"/>
<path d="M3.00322 274.625C1.34484 274.625 0 273.426 0 271.947V247.356C0 245.878 1.34484 244.679 3.00322 244.679C4.66161 244.679 6.00835 245.878 6.00835 247.356V271.947C6.00646 273.426 4.66161 274.625 3.00322 274.625Z" fill="#DFDCE2"/>
<path d="M61.9194 139.906C63.7439 139.906 65.223 135.331 65.223 129.688C65.223 124.044 63.7439 119.47 61.9194 119.47C60.0949 119.47 58.6158 124.044 58.6158 129.688C58.6158 135.331 60.0949 139.906 61.9194 139.906Z" fill="#EAE6ED"/>
<path d="M94.2731 129.688C94.2731 135.331 92.7941 139.906 90.9695 139.906C89.1449 139.906 87.6659 135.331 87.6659 129.688C87.6659 124.044 89.1449 119.47 90.9695 119.47C92.7941 119.47 94.2731 124.044 94.2731 129.688Z" fill="white"/>
<path d="M90.9695 125.265H76.7996V134.244H90.9695V125.265Z" fill="white"/>
<path d="M76.7996 125.197H62.6296V134.176H76.7996V125.197Z" fill="#EAE6ED"/>
<path d="M81.3327 5.96523V287.035C81.3327 290.325 78.405 293 74.7785 293H72.2664V0H74.7785C78.405 0 81.3327 2.67366 81.3327 5.96523Z" fill="#8D9AB1"/>
<path d="M167.743 116.882C167.743 116.882 164.932 112.262 164.292 109.174C163.65 106.088 165.854 100.474 167.743 101.037C169.631 101.597 167.743 105.807 167.743 105.807C167.743 105.807 174.51 93.8037 177.816 94.0209C180.035 94.1674 177.816 97.6694 177.816 97.6694C177.816 97.6694 180.806 92.7582 182.961 94.0074C185.346 95.3897 182.961 99.0719 182.961 99.0719C182.961 99.0719 186 98.2301 186 100.474C186 102.719 180.86 115.047 175.088 116.88C169.318 118.715 167.743 116.882 167.743 116.882Z" fill="#F98875"/>
<path d="M109.926 225.012L112.568 271.966L130.727 273.793L132.444 219.587L109.926 225.012Z" fill="white"/>
<path d="M84.7761 288.41C85.881 288.803 132.65 289.436 133.715 287.882C134.038 287.414 134.252 285.831 134.375 283.844C134.696 279.162 132.782 272.545 132.782 272.545C132.782 272.545 133.094 270.166 133.011 269.063C132.941 267.974 112.275 268.294 112.275 268.294L97.7976 278.728C97.7976 278.728 93.7763 278.135 89.4037 278.818C87.0861 279.174 85.6222 281.726 84.9139 284.122C84.2812 286.247 84.2529 288.22 84.7761 288.41Z" fill="#16325B"/>
<path d="M84.6797 288.287C85.7696 288.71 132.493 290.67 133.613 289.146C133.953 288.686 134.222 287.111 134.416 285.131C125.516 285.538 103.623 286.22 84.9669 284.006C84.2604 286.112 84.1622 288.082 84.6797 288.287Z" fill="#FFDC7F"/>
<path d="M101.598 276.998C101.354 276.998 101.148 276.832 101.128 276.613C101.105 276.382 101.299 276.179 101.558 276.158L109.01 275.606L106.739 273.126C106.573 272.946 106.605 272.68 106.805 272.533C107.009 272.389 107.308 272.412 107.47 272.594L110.309 275.694C110.421 275.815 110.447 275.98 110.379 276.125C110.309 276.268 110.158 276.367 109.982 276.379L101.636 276.997C101.624 276.997 101.611 276.998 101.598 276.998Z" fill="white"/>
<path d="M158.725 223.054L161.383 274.539L142.963 275.295L136.207 226.904L158.725 223.054Z" fill="white"/>
<path d="M157.042 186.074C157.042 186.074 158.922 202.153 161.441 218.371C163.959 234.59 166.024 262.391 166.024 262.391L134.518 262.926L102.867 262.063C102.867 262.063 110.592 191.918 112.736 183.536C114.88 175.155 157.042 186.074 157.042 186.074Z" fill="#FFC938"/>
<path d="M135.935 135.899C135.935 135.899 143.671 135.469 150.819 144.031C155.643 149.809 157.041 186.072 157.041 186.072L145.305 175.13L113.939 167.639C113.939 167.639 111.186 148.474 117.184 141.6C123.183 134.729 135.935 135.899 135.935 135.899Z" fill="#25559B"/>
<path d="M156.349 177.016L157.282 188.086C157.282 188.086 144.782 190.296 131.128 189.158C117.473 188.022 112.368 185.311 112.368 185.311L113.32 156.694L147.527 159.721L156.349 177.016Z" fill="#25559B"/>
<path d="M131.861 262.484C131.602 262.484 131.392 262.298 131.388 262.068L130.41 199.764L117.917 195.706C117.674 195.627 117.547 195.384 117.636 195.167C117.727 194.948 117.997 194.836 118.242 194.916L131.041 199.073C131.224 199.134 131.347 199.289 131.351 199.464L132.333 262.058C132.337 262.29 132.129 262.48 131.868 262.484C131.864 262.484 131.861 262.484 131.861 262.484Z" fill="#25559B"/>
<path d="M87.7056 119.219C87.7056 119.219 86.085 114.397 83.8467 116.316C81.6104 118.236 82.1808 127.336 85.354 127.811C88.5273 128.285 87.7056 119.219 87.7056 119.219Z" fill="#F98875"/>
<path d="M92.3729 119.025C92.3729 119.025 90.7523 114.203 88.514 116.122C86.2777 118.042 86.8481 127.142 90.0213 127.617C93.1964 128.092 92.3729 119.025 92.3729 119.025Z" fill="#F98875"/>
<path d="M96.7511 121.318C96.9381 120.18 96.8456 119.008 96.3526 117.946C95.9182 117.011 95.2004 116.249 94.0633 116.936C91.7873 118.308 90.7466 126.32 93.4344 127.161C95.4215 127.782 96.3847 123.559 96.7511 121.318Z" fill="#F98875"/>
<path d="M92.082 125.83C91.8025 125.82 91.5985 125.625 91.6098 125.393L91.9007 119.008C91.912 118.778 92.1557 118.618 92.3918 118.604C92.6543 118.614 92.8564 118.81 92.8451 119.042L92.5542 125.426C92.5429 125.654 92.3351 125.83 92.082 125.83Z" fill="black"/>
<path d="M87.6584 125.512C87.3788 125.502 87.1748 125.307 87.1862 125.075L87.477 118.692C87.4884 118.461 87.7226 118.273 87.9682 118.288C88.2307 118.298 88.4328 118.493 88.4215 118.725L88.1306 125.108C88.1193 125.335 87.9115 125.512 87.6584 125.512Z" fill="black"/>
<path d="M181.421 114.442C181.421 114.442 190.157 142.825 166.024 156.34C141.89 169.855 139.208 136.323 139.208 136.323C139.208 136.323 151.093 135.395 156.31 129.61C161.526 123.825 162.671 114.72 162.671 114.72L181.421 114.442Z" fill="#25559B"/>
<path d="M137.68 129.925L137.778 137.079C137.778 137.079 136.19 139.185 130.948 139.685C127.044 140.057 125.661 139.394 125.661 139.394L126.156 135.754L126.646 132.205L136.095 130.253L137.68 129.925Z" fill="#F98875"/>
<path d="M136.097 130.272C136.08 130.491 135.993 130.752 135.857 131.05C133.955 135.091 128.338 136.069 126.083 136.298L126.646 132.205L136.097 130.272Z" fill="black"/>
<path d="M124.173 114.132C124.173 114.132 119.729 124.266 121.735 129.802C123.741 135.338 129.424 134.257 132.799 133.055C136.175 131.853 137.682 129.927 137.682 129.927C137.682 129.927 140.923 130.78 142.944 128.056C144.965 125.33 143.515 122.334 141.658 121.699C139.801 121.066 137.682 122.317 137.682 122.317L139.255 119.362C139.255 119.362 131.449 104.896 124.173 114.132Z" fill="#F98875"/>
<path d="M125.102 125.938C124.908 125.938 124.728 125.832 124.659 125.66C123.765 123.45 125.575 121.889 125.652 121.823C125.841 121.665 126.137 121.672 126.319 121.838C126.498 122.007 126.491 122.273 126.304 122.433C126.245 122.483 124.866 123.691 125.548 125.374C125.637 125.593 125.51 125.834 125.265 125.913C125.21 125.93 125.157 125.938 125.102 125.938Z" fill="black"/>
<path d="M138.383 127.071C138.273 127.071 138.164 127.038 138.075 126.969C137.878 126.817 137.856 126.551 138.026 126.374L140.912 123.382C141.084 123.207 141.382 123.187 141.577 123.339C141.775 123.49 141.796 123.756 141.626 123.933L138.74 126.925C138.645 127.023 138.515 127.071 138.383 127.071Z" fill="black"/>
<path d="M141.554 126.172C141.505 126.171 139.389 125.972 139.389 125.972C139.131 125.948 138.944 125.741 138.968 125.511C138.997 125.28 139.236 125.118 139.488 125.135L141.601 125.332C141.86 125.356 142.047 125.563 142.022 125.793C142 126.011 141.794 126.172 141.554 126.172Z" fill="black"/>
<path d="M130.038 123.67C129.739 123.65 129.545 123.448 129.568 123.216L129.802 120.633C129.824 120.401 130.059 120.229 130.312 120.247C130.572 120.266 130.765 120.468 130.744 120.7L130.51 123.283C130.487 123.504 130.282 123.67 130.038 123.67Z" fill="black"/>
<path d="M123.824 123.44C123.518 123.414 123.327 123.207 123.353 122.977L123.639 120.439C123.667 120.209 123.875 120.035 124.156 120.062C124.415 120.086 124.604 120.291 124.579 120.522L124.294 123.059C124.268 123.278 124.064 123.44 123.824 123.44Z" fill="black"/>
<path d="M131.861 119.316C131.698 119.316 131.538 119.241 131.451 119.104C130.945 118.32 129.681 118.597 129.628 118.608C129.364 118.665 129.118 118.532 129.052 118.306C128.986 118.082 129.135 117.852 129.386 117.793C129.467 117.774 131.4 117.335 132.269 118.683C132.397 118.885 132.32 119.141 132.095 119.257C132.019 119.3 131.94 119.316 131.861 119.316Z" fill="black"/>
<path d="M123.193 118.523C123.07 118.523 122.945 118.481 122.853 118.395C122.671 118.229 122.675 117.963 122.864 117.801C122.959 117.717 123.841 116.985 124.836 117.064C125.344 117.099 125.794 117.335 126.139 117.744C126.298 117.929 126.256 118.193 126.047 118.333C125.841 118.471 125.543 118.438 125.386 118.251C125.201 118.033 124.999 117.919 124.762 117.902C124.286 117.865 123.697 118.252 123.52 118.404C123.429 118.485 123.31 118.523 123.193 118.523Z" fill="black"/>
<path d="M137.682 122.317C137.682 122.317 137.283 124.669 135.767 123.886C134.252 123.103 137.493 118.667 137.493 118.667C137.493 118.667 133.493 120.093 130.81 117.229C128.128 114.365 129.209 112.449 129.209 112.449L123.688 115.331C123.688 115.331 122.195 109.41 124.13 108.186C126.064 106.96 129.481 107.967 129.481 107.967C129.481 107.967 129.143 105.406 134.832 105.793C140.521 106.18 140.636 111.42 140.636 111.42C140.636 111.42 144.348 111.12 145.759 114.038C147.17 116.958 144.982 119.345 144.982 119.345C144.982 119.345 147.647 119.768 146.539 121.862C145.43 123.957 143.913 124.99 143.913 124.99C143.913 124.99 142.959 120.705 137.682 122.317Z" fill="black"/>
<path d="M128.1 140C127.28 140 126.434 139.943 125.578 139.81C125.321 139.77 125.15 139.552 125.195 139.323C125.238 139.094 125.471 138.934 125.741 138.982C131.8 139.916 137.467 136.757 137.521 136.725C137.742 136.601 138.033 136.656 138.175 136.855C138.315 137.05 138.251 137.311 138.031 137.436C137.822 137.554 133.451 140 128.1 140Z" fill="white"/>
<path d="M126.902 128.923C126.644 128.923 126.434 128.74 126.43 128.509C126.426 128.277 126.634 128.085 126.895 128.082C126.976 128.08 128.457 128.023 129.59 126.736C129.747 126.553 130.045 126.521 130.253 126.666C130.457 126.809 130.495 127.073 130.333 127.257C128.906 128.878 126.991 128.923 126.91 128.923C126.91 128.923 126.906 128.923 126.902 128.923Z" fill="black"/>
<path d="M113.195 157.827C112.92 157.818 112.714 157.623 112.723 157.391L112.952 151.436C112.961 151.205 113.203 151.035 113.441 151.03C113.701 151.038 113.905 151.234 113.896 151.466L113.667 157.421C113.658 157.648 113.448 157.827 113.195 157.827Z" fill="white"/>
<path d="M154.383 197.809C154.322 197.809 148.322 197.74 148.322 191.738C148.322 191.505 148.533 191.317 148.794 191.317C149.055 191.317 149.266 191.505 149.266 191.738C149.266 196.888 154.175 196.967 154.385 196.967C154.645 196.969 154.855 197.157 154.855 197.39C154.853 197.622 154.644 197.809 154.383 197.809Z" fill="#25559B"/>
<path d="M114.993 289.69C116.125 290.018 162.843 287.959 163.793 286.346C164.082 285.86 164.178 284.269 164.16 282.28C164.141 277.589 161.751 271.096 161.751 271.096C161.751 271.096 161.889 268.703 161.727 267.609C161.577 266.526 140.978 268.035 140.978 268.035L127.284 279.278C127.284 279.278 123.229 278.918 118.913 279.852C116.625 280.341 115.35 282.97 114.816 285.403C114.34 287.56 114.455 289.53 114.993 289.69Z" fill="#16325B"/>
<path d="M114.888 289.574C116.006 289.934 162.775 289.2 163.782 287.616C164.088 287.137 164.241 285.55 164.292 283.561C155.439 284.481 133.64 286.42 114.863 285.284C114.312 287.427 114.357 289.399 114.888 289.574Z" fill="#FFDC7F"/>
<path d="M130.92 277.334C130.69 277.334 130.489 277.184 130.453 276.975C130.416 276.746 130.593 276.53 130.85 276.497L138.249 275.517L135.804 273.173C135.625 273.003 135.636 272.737 135.829 272.577C136.022 272.419 136.322 272.432 136.496 272.599L139.552 275.529C139.673 275.643 139.711 275.808 139.654 275.955C139.595 276.103 139.452 276.209 139.278 276.231L130.992 277.327C130.967 277.332 130.943 277.334 130.92 277.334Z" fill="white"/>
<path d="M171.679 113.413C171.403 113.407 171.199 113.211 171.207 112.981C171.354 108.628 167.512 106.175 167.473 106.152C167.259 106.019 167.206 105.756 167.355 105.566C167.506 105.376 167.799 105.33 168.015 105.463C168.19 105.573 172.312 108.204 172.149 113.006C172.144 113.235 171.932 113.413 171.679 113.413Z" fill="black"/>
<path d="M179.391 107.66C179.314 107.66 179.236 107.644 179.162 107.608L171.456 103.82C171.229 103.709 171.146 103.451 171.271 103.249C171.396 103.045 171.683 102.971 171.913 103.084L179.62 106.872C179.846 106.984 179.929 107.241 179.805 107.443C179.72 107.583 179.557 107.66 179.391 107.66Z" fill="black"/>
<path d="M178.575 107.261C178.503 107.261 178.431 107.248 178.363 107.216C178.131 107.111 178.037 106.859 178.154 106.65L182.54 98.8834C182.659 98.6746 182.944 98.5921 183.174 98.6965C183.407 98.8009 183.501 99.0535 183.384 99.2622L178.998 107.029C178.915 107.175 178.747 107.261 178.575 107.261Z" fill="black"/>
<path d="M173.649 104.839C173.57 104.839 173.492 104.822 173.418 104.785C173.192 104.672 173.111 104.414 173.237 104.212L178.163 96.3629C178.288 96.1558 178.577 96.0902 178.805 96.2013C179.032 96.3141 179.113 96.5717 178.987 96.7738L174.061 104.623C173.974 104.761 173.811 104.839 173.649 104.839Z" fill="black"/>
</svg>
