<svg width="60" height="60" viewBox="0 0 60 60" fill="none" xmlns="http://www.w3.org/2000/svg">
<path opacity="0.21" fill-rule="evenodd" clip-rule="evenodd" d="M0 30V37C0 49.7025 10.2975 60 23 60H30H37C49.7025 60 60 49.7025 60 37V30V23C60 10.2975 49.7025 0 37 0H30H23C10.2975 0 0 10.2975 0 23V30Z" fill="#7FA6E0"/>
<path d="M19.7824 19.3965C19.9884 18.4699 20.5041 17.6413 21.2445 17.0473C21.9849 16.4533 22.9056 16.1296 23.8548 16.1294H35.5242C36.4736 16.1293 37.3946 16.453 38.1351 17.047C38.8757 17.641 39.3916 18.4697 39.5976 19.3965L40.2621 22.3881H41.1644C41.441 22.3881 41.7064 22.498 41.902 22.6937C42.0976 22.8893 42.2075 23.1546 42.2075 23.4313C42.2075 23.7079 42.0976 23.9732 41.902 24.1689C41.7064 24.3645 41.441 24.4744 41.1644 24.4744H40.7263L41.0705 26.0234C41.7302 26.3819 42.2809 26.9118 42.6646 27.5571C43.0483 28.2024 43.2507 28.9393 43.2506 29.69V40.1213C43.2506 40.9512 42.9209 41.7472 42.3341 42.3341C41.7472 42.9209 40.9512 43.2506 40.1213 43.2506H39.0781C38.2482 43.2506 37.4522 42.9209 36.8653 42.3341C36.2785 41.7472 35.9488 40.9512 35.9488 40.1213V39.0781H23.4313V40.1213C23.4313 40.9512 23.1016 41.7472 22.5147 42.3341C21.9278 42.9209 21.1319 43.2506 20.3019 43.2506H19.2588C18.4288 43.2506 17.6328 42.9209 17.046 42.3341C16.4591 41.7472 16.1294 40.9512 16.1294 40.1213V29.69C16.1293 28.9393 16.3318 28.2024 16.7155 27.5571C17.0992 26.9118 17.6499 26.3819 18.3095 26.0234L18.6538 24.4744H18.2156C17.939 24.4744 17.6737 24.3645 17.478 24.1689C17.2824 23.9732 17.1725 23.7079 17.1725 23.4313C17.1725 23.1546 17.2824 22.8893 17.478 22.6937C17.6737 22.498 17.939 22.3881 18.2156 22.3881H19.1169L19.7824 19.3965ZM20.5595 25.5175H38.8205L37.5614 19.8492C37.4584 19.3857 37.2004 18.9713 36.83 18.6743C36.4596 18.3773 35.999 18.2155 35.5242 18.2156H23.8558C23.3811 18.2155 22.9204 18.3773 22.55 18.6743C22.1796 18.9713 21.9216 19.3857 21.8186 19.8492L20.5595 25.5175ZM18.2156 39.0781V40.1213C18.2156 40.3979 18.3255 40.6632 18.5212 40.8589C18.7168 41.0545 18.9821 41.1644 19.2588 41.1644H20.3019C20.5785 41.1644 20.8439 41.0545 21.0395 40.8589C21.2351 40.6632 21.345 40.3979 21.345 40.1213V39.0781H18.2156ZM38.035 39.0781V40.1213C38.035 40.3979 38.1449 40.6632 38.3405 40.8589C38.5362 41.0545 38.8015 41.1644 39.0781 41.1644H40.1213C40.3979 41.1644 40.6632 41.0545 40.8589 40.8589C41.0545 40.6632 41.1644 40.3979 41.1644 40.1213V39.0781H38.035ZM26.0391 33.8625C26.0391 34.1392 26.149 34.4045 26.3446 34.6001C26.5402 34.7957 26.8056 34.9056 27.0822 34.9056H32.2978C32.5745 34.9056 32.8398 34.7957 33.0354 34.6001C33.2311 34.4045 33.341 34.1392 33.341 33.8625C33.341 33.5859 33.2311 33.3205 33.0354 33.1249C32.8398 32.9293 32.5745 32.8194 32.2978 32.8194H27.0822C26.8056 32.8194 26.5402 32.9293 26.3446 33.1249C26.149 33.3205 26.0391 33.5859 26.0391 33.8625ZM22.9097 32.8194C23.3247 32.8194 23.7227 32.6545 24.0161 32.3611C24.3095 32.0677 24.4744 31.6697 24.4744 31.2547C24.4744 30.8397 24.3095 30.4417 24.0161 30.1483C23.7227 29.8549 23.3247 29.69 22.9097 29.69C22.4947 29.69 22.0967 29.8549 21.8033 30.1483C21.5099 30.4417 21.345 30.8397 21.345 31.2547C21.345 31.6697 21.5099 32.0677 21.8033 32.3611C22.0967 32.6545 22.4947 32.8194 22.9097 32.8194ZM38.035 31.2547C38.035 30.8397 37.8702 30.4417 37.5767 30.1483C37.2833 29.8549 36.8853 29.69 36.4703 29.69C36.0554 29.69 35.6574 29.8549 35.3639 30.1483C35.0705 30.4417 34.9056 30.8397 34.9056 31.2547C34.9056 31.6697 35.0705 32.0677 35.3639 32.3611C35.6574 32.6545 36.0554 32.8194 36.4703 32.8194C36.8853 32.8194 37.2833 32.6545 37.5767 32.3611C37.8702 32.0677 38.035 31.6697 38.035 31.2547Z" fill="#25559B"/>
</svg>
