<svg width="24" height="24" viewBox="0 0 24 24" fill="none" xmlns="http://www.w3.org/2000/svg">
<path d="M15.9678 3.78418C16.1025 3.5818 16.3119 3.44117 16.5502 3.3932C16.7885 3.34524 17.0361 3.39386 17.2386 3.52838C18.4995 4.36432 19.5338 5.4996 20.2489 6.83279C20.9641 8.16597 21.3378 9.65554 21.3369 11.1684C21.3369 16.2321 17.2321 20.3368 12.1684 20.3368C7.10471 20.3368 3 16.2321 3 11.1684C2.99901 9.65554 3.37278 8.16597 4.08793 6.83279C4.80308 5.4996 5.83733 4.36432 7.09829 3.52838C7.30084 3.39379 7.54857 3.34517 7.78696 3.39323C8.02536 3.44129 8.2349 3.58208 8.36949 3.78463C8.50408 3.98719 8.55269 4.23491 8.50464 4.47331C8.45658 4.7117 8.31579 4.92125 8.11323 5.05584C6.80035 5.92694 5.80287 7.19765 5.26847 8.67985C4.73407 10.162 4.69115 11.7769 5.14608 13.2854C5.60101 14.7939 6.52959 16.1158 7.79436 17.0554C9.05913 17.995 10.5928 18.5024 12.1684 18.5024C13.744 18.5024 15.2777 17.995 16.5425 17.0554C17.8073 16.1158 18.7358 14.7939 19.1908 13.2854C19.6457 11.7769 19.6028 10.162 19.0684 8.67985C18.534 7.19765 17.5365 5.92694 16.2236 5.05584C16.1232 4.98924 16.0369 4.9035 15.9697 4.80353C15.9024 4.70356 15.8555 4.59132 15.8317 4.47321C15.8078 4.35511 15.8075 4.23347 15.8307 4.11524C15.8539 3.99701 15.9011 3.88451 15.9678 3.78418ZM12.1684 2C12.393 2.00003 12.6097 2.08248 12.7776 2.2317C12.9454 2.38092 13.0526 2.58655 13.0789 2.80957L13.0853 2.91684V12.0853C13.085 12.319 12.9955 12.5437 12.8351 12.7136C12.6747 12.8836 12.4554 12.9858 12.2222 12.9995C11.9889 13.0132 11.7592 12.9373 11.58 12.7873C11.4008 12.6373 11.2856 12.4246 11.258 12.1925L11.2516 12.0853V2.91684C11.2516 2.67368 11.3482 2.44048 11.5201 2.26854C11.6921 2.0966 11.9253 2 12.1684 2Z" fill="#D00416"/>
</svg>
