<svg width="24" height="24" viewBox="0 0 24 24" fill="none" xmlns="http://www.w3.org/2000/svg">
<path d="M20.7422 14.0386L19.28 12.7885C19.3492 12.3644 19.385 11.9313 19.385 11.4983C19.385 11.0652 19.3492 10.6321 19.28 10.208L20.7422 8.95792C20.8525 8.8635 20.9314 8.73776 20.9685 8.5974C21.0056 8.45704 20.9991 8.30871 20.9498 8.17215L20.9297 8.11411C20.5272 6.98908 19.9244 5.94617 19.1506 5.03577L19.1104 4.98889C19.0165 4.87851 18.8914 4.79916 18.7515 4.7613C18.6116 4.72344 18.4636 4.72886 18.3268 4.77682L16.512 5.42196C15.8423 4.87281 15.0945 4.43974 14.2864 4.13615L13.9359 2.2387C13.9095 2.09593 13.8402 1.96458 13.7373 1.86211C13.6345 1.75963 13.5029 1.69089 13.36 1.665L13.2997 1.65384C12.1367 1.444 10.9134 1.444 9.75036 1.65384L9.69009 1.665C9.54722 1.69089 9.4156 1.75963 9.31273 1.86211C9.20986 1.96458 9.1406 2.09593 9.11416 2.2387L8.76146 4.14508C7.95982 4.44875 7.21329 4.88159 6.55148 5.42642L4.72323 4.77682C4.58654 4.72847 4.43837 4.72287 4.29841 4.76075C4.15846 4.79863 4.03334 4.8782 3.93969 4.98889L3.89951 5.03577C3.12656 5.94682 2.52391 6.98955 2.12037 8.11411L2.10028 8.17215C1.99983 8.45118 2.08242 8.76371 2.30788 8.95792L3.7879 10.2214C3.7187 10.6411 3.68521 11.0697 3.68521 11.496C3.68521 11.9246 3.7187 12.3532 3.7879 12.7707L2.30788 14.0342C2.1976 14.1286 2.11867 14.2543 2.08158 14.3947C2.0445 14.535 2.05102 14.6834 2.10028 14.8199L2.12037 14.878C2.52442 16.003 3.12267 17.0411 3.89951 17.9563L3.93969 18.0032C4.03357 18.1136 4.15869 18.1929 4.29856 18.2308C4.43843 18.2686 4.58649 18.2632 4.72323 18.2153L6.55148 17.5657C7.21671 18.1126 7.96006 18.5456 8.76146 18.847L9.11416 20.7534C9.1406 20.8962 9.20986 21.0275 9.31273 21.13C9.4156 21.2324 9.54722 21.3012 9.69009 21.3271L9.75036 21.3382C10.9241 21.5492 12.126 21.5492 13.2997 21.3382L13.36 21.3271C13.5029 21.3012 13.6345 21.2324 13.7373 21.13C13.8402 21.0275 13.9095 20.8962 13.9359 20.7534L14.2864 18.8559C15.0942 18.5531 15.8462 18.1187 16.512 17.5701L18.3268 18.2153C18.4635 18.2636 18.6117 18.2692 18.7517 18.2313C18.8916 18.1934 19.0167 18.1139 19.1104 18.0032L19.1506 17.9563C19.9274 17.0388 20.5257 16.003 20.9297 14.878L20.9498 14.8199C21.0503 14.5454 20.9677 14.2328 20.7422 14.0386ZM17.6951 10.4714C17.7509 10.8085 17.7799 11.1545 17.7799 11.5005C17.7799 11.8465 17.7509 12.1925 17.6951 12.5296L17.5478 13.4247L19.2153 14.8512C18.9625 15.4336 18.6434 15.9849 18.2643 16.4942L16.1928 15.7597L15.4918 16.3357C14.9583 16.7732 14.3645 17.117 13.7216 17.3581L12.8711 17.6773L12.4715 19.8426C11.8411 19.914 11.2045 19.914 10.5741 19.8426L10.1745 17.6728L9.33069 17.3491C8.69449 17.108 8.10293 16.7643 7.57387 16.329L6.87293 15.7508L4.78797 16.4919C4.40848 15.9807 4.09149 15.4293 3.83701 14.849L5.52239 13.4091L5.37729 12.5162C5.32372 12.1836 5.2947 11.8398 5.2947 11.5005C5.2947 11.159 5.32148 10.8174 5.37729 10.4848L5.52239 9.59189L3.83701 8.15206C4.08926 7.56943 4.40848 7.02028 4.78797 6.50908L6.87293 7.25021L7.57387 6.67204C8.10293 6.23674 8.69449 5.89297 9.33069 5.65188L10.1767 5.33266L10.5763 3.16287C11.2036 3.09144 11.8443 3.09144 12.4738 3.16287L12.8733 5.3282L13.7239 5.64742C14.3645 5.88851 14.9605 6.23228 15.4941 6.66981L16.195 7.24574L18.2666 6.51132C18.6461 7.02251 18.9631 7.57389 19.2175 8.15429L17.55 9.58073L17.6951 10.4714ZM11.5273 7.34843C9.35748 7.34843 7.59843 9.10748 7.59843 11.2773C7.59843 13.4471 9.35748 15.2061 11.5273 15.2061C13.6971 15.2061 15.4561 13.4471 15.4561 11.2773C15.4561 9.10748 13.6971 7.34843 11.5273 7.34843ZM13.2953 13.0453C13.0634 13.2778 12.7878 13.4622 12.4844 13.5879C12.1809 13.7135 11.8557 13.778 11.5273 13.7774C10.8598 13.7774 10.2325 13.5163 9.75929 13.0453C9.52674 12.8134 9.34233 12.5378 9.21667 12.2344C9.09101 11.931 9.02659 11.6057 9.0271 11.2773C9.0271 10.6098 9.28828 9.98254 9.75929 9.50929C10.2325 9.03605 10.8598 8.7771 11.5273 8.7771C12.1947 8.7771 12.822 9.03605 13.2953 9.50929C13.5278 9.74118 13.7122 10.0168 13.8379 10.3202C13.9635 10.6236 14.028 10.9489 14.0274 11.2773C14.0274 11.9447 13.7663 12.572 13.2953 13.0453Z" fill="black"/>
</svg>
