<svg width="151" height="42" viewBox="0 0 151 42" fill="none" xmlns="http://www.w3.org/2000/svg">
<path d="M26.8205 17.0761C26.8205 21.3986 23.7087 24.7059 21.4119 27.6315C13.188 35.9688 21.4119 27.6315 13.188 35.9688C5.40854 27.6315 13.188 35.9688 5.40854 27.6315C2.59314 24.9239 0 21.3986 0 17.0761C0 9.81233 6.00396 3.92387 13.4102 3.92387C20.8165 3.92387 26.8205 9.81233 26.8205 17.0761Z" fill="#25559B"/>
<path d="M20.0042 40.4741C20.0042 41.3168 17.052 42 13.4102 42C9.76848 42 6.81625 41.3168 6.81625 40.4741C6.81625 39.6313 9.76848 38.9481 13.4102 38.9481C17.052 38.9481 20.0042 39.6313 20.0042 40.4741Z" fill="#D9D9D9"/>
<path fill-rule="evenodd" clip-rule="evenodd" d="M1.18544 11.917C0.694414 11.917 0.296363 11.5266 0.296363 11.045V7.12111C0.296363 6.63953 0.694414 6.24913 1.18544 6.24913H2.29472C2.79917 2.7176 5.89183 0 9.63166 0H17.337C21.0768 0 24.1695 2.7176 24.6739 6.24913H25.9314C26.4224 6.24913 26.8205 6.63953 26.8205 7.12111V11.045C26.8205 11.5266 26.4224 11.917 25.9314 11.917H1.18544ZM9.3353 3.19723C9.3353 2.71565 9.73335 2.32526 10.2244 2.32526H16.7443C17.2353 2.32526 17.6333 2.71565 17.6333 3.19723C17.6333 3.67881 17.2353 4.0692 16.7443 4.0692H10.2244C9.73335 4.0692 9.3353 3.67881 9.3353 3.19723ZM5.16703 5.79292C5.17787 5.64061 5.30702 5.52249 5.46269 5.52249H21.5091C21.6635 5.52249 21.792 5.63869 21.8045 5.78957L22.2749 11.4574C22.289 11.6267 22.1527 11.7716 21.9795 11.7716H5.0595C4.8877 11.7716 4.75191 11.6288 4.76386 11.4607L5.16703 5.79292Z" fill="#25559B"/>
<path d="M8.06514 14.7085C7.67358 14.594 7.26132 14.8121 7.14385 15.196C7.02628 15.5804 7.24869 15.9855 7.64061 16.1008C7.75353 16.1341 7.8911 16.1534 8.0018 16.1668C8.12829 16.182 8.28211 16.1963 8.45579 16.2097C8.80401 16.2366 9.25448 16.2617 9.77034 16.2841C10.8033 16.3288 12.1175 16.363 13.4394 16.3767C14.7604 16.3904 16.0974 16.3836 17.1738 16.3456C17.711 16.3266 18.1925 16.2995 18.5786 16.2621C18.9246 16.2285 19.3035 16.1785 19.5552 16.0727C19.9313 15.9146 20.1055 15.4875 19.9443 15.1186C19.7831 14.7497 19.3476 14.5789 18.9715 14.737L18.9724 14.7366C18.9743 14.7358 18.9752 14.7353 18.9752 14.7353C18.9752 14.7353 18.9742 14.7355 18.972 14.7361L18.9715 14.7362C18.9599 14.7394 18.921 14.75 18.8425 14.7637C18.7405 14.7815 18.604 14.7992 18.4327 14.8158C18.0906 14.8491 17.6436 14.8748 17.1204 14.8933C16.076 14.9302 14.7643 14.937 13.4551 14.9235C12.1469 14.9099 10.8494 14.876 9.83564 14.8322C9.32814 14.8102 8.89648 14.786 8.5721 14.7609C8.45066 14.7515 8.34734 14.7423 8.26261 14.7333C8.23389 14.7303 8.20732 14.7273 8.1829 14.7244C8.14473 14.7197 8.11669 14.7158 8.09712 14.7128C8.08222 14.7105 8.07221 14.7088 8.06637 14.7078C8.06199 14.7071 8.05993 14.7069 8.05993 14.7069C8.05993 14.7069 8.06125 14.7073 8.0638 14.7081L8.06431 14.7082L8.06514 14.7085Z" fill="white"/>
<path d="M7.14385 17.5213C7.26132 17.1373 7.6736 16.9192 8.06514 17.0337L8.06431 17.0335C8.06143 17.0326 8.05993 17.0321 8.05993 17.0321C8.05993 17.0321 8.06199 17.0323 8.06637 17.0331C8.07988 17.0354 8.11564 17.0415 8.1829 17.0496C8.23215 17.0556 8.29016 17.0617 8.35676 17.0679C8.42067 17.0739 8.49248 17.08 8.5721 17.0862C8.89648 17.1112 9.32814 17.1355 9.83564 17.1574C10.8494 17.2013 12.1469 17.2352 13.4551 17.2487C14.7643 17.2623 16.076 17.2554 17.1204 17.2185C17.6436 17.2 18.0906 17.1743 18.4327 17.1411C18.604 17.1245 18.7405 17.1068 18.8425 17.0889C18.921 17.0752 18.9599 17.0646 18.9715 17.0615C18.974 17.0608 18.9752 17.0605 18.9752 17.0605C18.9752 17.0605 18.975 17.0607 18.9746 17.0609L18.9715 17.0622C19.3476 16.9041 19.7831 17.075 19.9443 17.4439C20.1055 17.8127 19.9313 18.2399 19.5552 18.398C19.3035 18.5038 18.9246 18.5537 18.5786 18.5873C18.1925 18.6248 17.711 18.6519 17.1738 18.6709C16.0974 18.7089 14.7604 18.7156 13.4394 18.702C12.1175 18.6883 10.8033 18.654 9.77034 18.6093C9.25448 18.587 8.80401 18.5619 8.45579 18.535C8.28211 18.5216 8.12829 18.5073 8.0018 18.492C7.8911 18.4786 7.75353 18.4593 7.64061 18.4261C7.24869 18.3108 7.02628 17.9057 7.14385 17.5213Z" fill="white"/>
<path d="M5.46269 5.52249C5.30702 5.52249 5.17787 5.64061 5.16703 5.79292L4.76386 11.4607C4.75191 11.6288 4.8877 11.7716 5.0595 11.7716H21.9795C22.1527 11.7716 22.289 11.6267 22.2749 11.4574L21.8045 5.78957C21.792 5.63869 21.6635 5.52249 21.5091 5.52249H5.46269Z" fill="white"/>
<path d="M10.2244 2.32526C9.73335 2.32526 9.3353 2.71565 9.3353 3.19723C9.3353 3.67881 9.73335 4.0692 10.2244 4.0692H16.7443C17.2353 4.0692 17.6333 3.67881 17.6333 3.19723C17.6333 2.71565 17.2353 2.32526 16.7443 2.32526H10.2244Z" fill="white"/>
<path d="M3.76912 15.6916C3.60963 15.6916 3.45373 15.74 3.32112 15.8306C3.18851 15.9213 3.08516 16.0502 3.02412 16.201C2.96309 16.3518 2.94712 16.5177 2.97824 16.6778C3.00935 16.8379 3.08615 16.9849 3.19892 17.1003C3.3117 17.2157 3.45538 17.2943 3.6118 17.3262C3.76822 17.358 3.93036 17.3417 4.0777 17.2792C4.22505 17.2167 4.35098 17.111 4.43959 16.9753C4.52819 16.8396 4.57549 16.68 4.57549 16.5168C4.57525 16.298 4.49021 16.0882 4.33904 15.9335C4.18787 15.7788 3.9829 15.6918 3.76912 15.6916ZM3.76912 17.192C3.63863 17.192 3.51107 17.1524 3.40257 17.0782C3.29408 17.004 3.20951 16.8985 3.15958 16.7752C3.10964 16.6518 3.09658 16.516 3.12203 16.3851C3.14749 16.2541 3.21033 16.1338 3.3026 16.0394C3.39486 15.9449 3.51242 15.8806 3.6404 15.8546C3.76838 15.8285 3.90104 15.8419 4.02159 15.893C4.14215 15.9441 4.24519 16.0306 4.31769 16.1417C4.39018 16.2527 4.42887 16.3833 4.42887 16.5168C4.42887 16.6959 4.35936 16.8676 4.23564 16.9942C4.11191 17.1208 3.94409 17.192 3.76912 17.192ZM5.30727 16.5826C5.30886 16.5387 5.30886 16.495 5.30727 16.4513L5.59738 16.0802C5.60458 16.071 5.60958 16.0602 5.61196 16.0487C5.61435 16.0372 5.61407 16.0253 5.61113 16.014C5.56772 15.8478 5.50295 15.6883 5.41851 15.5396C5.41286 15.5294 5.40494 15.5207 5.39539 15.5142C5.38584 15.5077 5.37493 15.5035 5.36353 15.5021L4.90189 15.4496C4.87285 15.4175 4.84259 15.3865 4.81117 15.3568L4.76004 14.8851C4.75866 14.8734 4.75462 14.8623 4.74826 14.8525C4.74189 14.8427 4.73337 14.8346 4.72338 14.8288C4.57828 14.7426 4.42268 14.6764 4.26064 14.6319C4.24954 14.6289 4.23791 14.6285 4.22667 14.6309C4.21544 14.6334 4.20491 14.6384 4.19594 14.6458L3.83344 14.9427C3.79056 14.9409 3.7478 14.9409 3.70516 14.9427L3.3421 14.6458C3.33315 14.6384 3.32263 14.6333 3.3114 14.6309C3.30016 14.6284 3.28852 14.6287 3.27741 14.6317C3.1152 14.6762 2.95947 14.7424 2.8143 14.8288C2.80431 14.8346 2.79579 14.8427 2.78942 14.8525C2.78306 14.8623 2.77902 14.8734 2.77764 14.8851L2.72633 15.3575C2.69491 15.3872 2.66465 15.4182 2.63561 15.4504L2.1747 15.5027C2.1633 15.5041 2.15239 15.5082 2.14284 15.5148C2.13329 15.5213 2.12537 15.53 2.11972 15.5402C2.03549 15.6887 1.97078 15.8479 1.92729 16.0138C1.92432 16.0251 1.92401 16.037 1.92636 16.0485C1.92872 16.06 1.93368 16.0708 1.94085 16.08L2.23096 16.451C2.22925 16.4948 2.22925 16.5386 2.23096 16.5822L1.94085 16.9538C1.93365 16.9629 1.92865 16.9737 1.92627 16.9852C1.92388 16.9967 1.92417 17.0086 1.9271 17.02C1.97055 17.186 2.03532 17.3454 2.11972 17.4939C2.12537 17.5042 2.13329 17.5129 2.14284 17.5194C2.15239 17.5259 2.1633 17.53 2.1747 17.5314L2.63635 17.584C2.6653 17.616 2.69572 17.6472 2.72706 17.6768L2.77838 18.1494C2.77976 18.1611 2.78379 18.1723 2.79016 18.182C2.79652 18.1918 2.80504 18.1999 2.81503 18.2057C2.96035 18.2917 3.11613 18.3576 3.27833 18.4019C3.28942 18.4049 3.30105 18.4052 3.31229 18.4028C3.32353 18.4004 3.33405 18.3953 3.34302 18.388L3.70552 18.0911C3.74841 18.0927 3.79117 18.0927 3.83381 18.0911L4.19649 18.388C4.20949 18.3987 4.22565 18.4045 4.24231 18.4045C4.24849 18.4045 4.25465 18.4037 4.26064 18.4021C4.42292 18.3576 4.57871 18.2912 4.72393 18.2048C4.73392 18.199 4.74244 18.1909 4.74881 18.1811C4.75517 18.1713 4.75921 18.1601 4.76059 18.1485L4.8119 17.676C4.84324 17.6464 4.87366 17.6153 4.90262 17.5832L5.36445 17.5307C5.37584 17.5293 5.38675 17.5252 5.3963 17.5186C5.40585 17.5121 5.41377 17.5034 5.41943 17.4932C5.50345 17.3445 5.56791 17.185 5.61113 17.0191C5.61409 17.0077 5.61441 16.9958 5.61205 16.9843C5.6097 16.9728 5.60473 16.962 5.59757 16.9528L5.30727 16.5826ZM5.31039 17.3859L4.85827 17.4373C4.84023 17.4393 4.82358 17.4482 4.81154 17.462C4.77437 17.505 4.73472 17.5456 4.69278 17.5836C4.67921 17.5959 4.67059 17.613 4.66859 17.6314L4.61837 18.0939C4.50433 18.1584 4.3836 18.2097 4.25844 18.2468L3.90327 17.9559C3.89025 17.9453 3.87409 17.9395 3.85745 17.9396H3.85305C3.79715 17.9431 3.74108 17.9431 3.68518 17.9396C3.66704 17.9384 3.64915 17.9443 3.63496 17.9559L3.27998 18.2466C3.15476 18.2097 3.03396 18.1585 2.91986 18.0941L2.86964 17.6314C2.86764 17.613 2.85902 17.5959 2.84545 17.5836C2.80351 17.5456 2.76386 17.505 2.7267 17.462C2.71465 17.4482 2.698 17.4393 2.67996 17.4373L2.22803 17.3859C2.165 17.2692 2.1149 17.1456 2.07867 17.0176L2.36291 16.6541C2.37427 16.6396 2.37995 16.6212 2.37886 16.6027C2.37557 16.5455 2.37557 16.4881 2.37886 16.4309C2.37995 16.4123 2.37427 16.394 2.36291 16.3795L2.07885 16.0162C2.11492 15.8881 2.1649 15.7644 2.22785 15.6477L2.67996 15.5963C2.698 15.5942 2.71465 15.5854 2.7267 15.5715C2.76386 15.5286 2.80351 15.488 2.84545 15.45C2.85902 15.4377 2.86764 15.4206 2.86964 15.4022L2.91986 14.9397C3.0339 14.8752 3.15463 14.8239 3.27979 14.7868L3.63496 15.0777C3.64915 15.0893 3.66704 15.0951 3.68518 15.094C3.74108 15.0905 3.79715 15.0905 3.85305 15.094C3.87119 15.0951 3.88908 15.0893 3.90327 15.0777L4.25825 14.787C4.38348 14.8239 4.50427 14.8751 4.61837 14.9395L4.66859 15.4022C4.67059 15.4206 4.67921 15.4377 4.69278 15.45C4.73472 15.488 4.77437 15.5286 4.81154 15.5715C4.82358 15.5854 4.84023 15.5942 4.85827 15.5963L5.3102 15.6477C5.37323 15.7644 5.42333 15.8879 5.45957 16.016L5.17532 16.3795C5.16397 16.394 5.15828 16.4123 5.15937 16.4309C5.16266 16.4881 5.16266 16.5455 5.15937 16.6027C5.15828 16.6212 5.16397 16.6396 5.17532 16.6541L5.45938 17.0174C5.42331 17.1455 5.37333 17.2691 5.31039 17.3859Z" fill="#25559B"/>
<path fill-rule="evenodd" clip-rule="evenodd" d="M5.31039 17.3859L4.85827 17.4373C4.84023 17.4393 4.82358 17.4482 4.81154 17.462C4.77437 17.505 4.73472 17.5456 4.69278 17.5836C4.67921 17.5959 4.67059 17.613 4.66859 17.6314L4.61837 18.0939C4.50433 18.1584 4.3836 18.2097 4.25844 18.2468L3.90327 17.9559C3.89025 17.9453 3.87409 17.9395 3.85745 17.9396H3.85305C3.79715 17.9431 3.74108 17.9431 3.68518 17.9396C3.66704 17.9384 3.64915 17.9443 3.63496 17.9559L3.27998 18.2466C3.15476 18.2097 3.03396 18.1585 2.91986 18.0941L2.86964 17.6314C2.86764 17.613 2.85902 17.5959 2.84545 17.5836C2.80351 17.5456 2.76386 17.505 2.7267 17.462C2.71465 17.4482 2.698 17.4393 2.67996 17.4373L2.22803 17.3859C2.165 17.2692 2.1149 17.1456 2.07867 17.0176L2.36291 16.6541C2.37427 16.6396 2.37995 16.6212 2.37886 16.6027C2.37557 16.5455 2.37557 16.4881 2.37886 16.4309C2.37995 16.4123 2.37427 16.394 2.36291 16.3795L2.07885 16.0162C2.11492 15.8881 2.1649 15.7644 2.22785 15.6477L2.67996 15.5963C2.698 15.5942 2.71465 15.5854 2.7267 15.5715C2.76386 15.5286 2.80351 15.488 2.84545 15.45C2.85902 15.4377 2.86764 15.4206 2.86964 15.4022L2.91986 14.9397C3.0339 14.8752 3.15463 14.8239 3.27979 14.7868L3.63496 15.0777C3.64915 15.0893 3.66704 15.0951 3.68518 15.094C3.74108 15.0905 3.79715 15.0905 3.85305 15.094C3.87119 15.0951 3.88908 15.0893 3.90327 15.0777L4.25825 14.787C4.38348 14.8239 4.50427 14.8751 4.61837 14.9395L4.66859 15.4022C4.67059 15.4206 4.67921 15.4377 4.69278 15.45C4.73472 15.488 4.77437 15.5286 4.81154 15.5715C4.82358 15.5854 4.84023 15.5942 4.85827 15.5963L5.3102 15.6477C5.37323 15.7644 5.42333 15.8879 5.45957 16.016L5.17532 16.3795C5.16397 16.394 5.15828 16.4123 5.15937 16.4309C5.16266 16.4881 5.16266 16.5455 5.15937 16.6027C5.15828 16.6212 5.16397 16.6396 5.17532 16.6541L5.45938 17.0174C5.42331 17.1455 5.37333 17.2691 5.31039 17.3859ZM3.32112 15.8306C3.45373 15.74 3.60963 15.6916 3.76912 15.6916C3.9829 15.6918 4.18787 15.7788 4.33904 15.9335C4.49021 16.0882 4.57525 16.298 4.57549 16.5168C4.57549 16.68 4.52819 16.8396 4.43959 16.9753C4.35098 17.111 4.22505 17.2167 4.0777 17.2792C3.93036 17.3417 3.76822 17.358 3.6118 17.3262C3.45538 17.2943 3.3117 17.2157 3.19892 17.1003C3.08615 16.9849 3.00935 16.8379 2.97824 16.6778C2.94712 16.5177 2.96309 16.3518 3.02412 16.201C3.08516 16.0502 3.18851 15.9213 3.32112 15.8306Z" fill="white"/>
<path fill-rule="evenodd" clip-rule="evenodd" d="M4.85827 17.4373L5.31039 17.3859C5.37333 17.2691 5.42331 17.1455 5.45938 17.0174L5.17532 16.6541C5.16397 16.6396 5.15828 16.6212 5.15937 16.6027C5.16266 16.5455 5.16266 16.4881 5.15937 16.4309C5.15828 16.4123 5.16397 16.394 5.17532 16.3795L5.45957 16.016C5.42333 15.8879 5.37323 15.7644 5.3102 15.6477L4.85827 15.5963C4.84023 15.5942 4.82358 15.5854 4.81154 15.5715C4.77437 15.5286 4.73472 15.488 4.69278 15.45C4.67921 15.4377 4.67059 15.4206 4.66859 15.4022L4.61837 14.9395C4.50427 14.8751 4.38348 14.8239 4.25825 14.787L3.90327 15.0777C3.88908 15.0893 3.87119 15.0951 3.85305 15.094C3.79715 15.0905 3.74108 15.0905 3.68518 15.094C3.66704 15.0951 3.64915 15.0893 3.63496 15.0777L3.27979 14.7868C3.15463 14.8239 3.0339 14.8752 2.91986 14.9397L2.86964 15.4022C2.86764 15.4206 2.85902 15.4377 2.84545 15.45C2.80351 15.488 2.76386 15.5286 2.7267 15.5715C2.71465 15.5854 2.698 15.5942 2.67996 15.5963L2.22785 15.6477C2.1649 15.7644 2.11492 15.8881 2.07885 16.0162L2.36291 16.3795C2.37427 16.394 2.37995 16.4123 2.37886 16.4309C2.37557 16.4881 2.37557 16.5455 2.37886 16.6027C2.37995 16.6212 2.37427 16.6396 2.36291 16.6541L2.07867 17.0176C2.1149 17.1456 2.165 17.2692 2.22803 17.3859L2.67996 17.4373C2.698 17.4393 2.71465 17.4482 2.7267 17.462C2.76386 17.505 2.80351 17.5456 2.84545 17.5836C2.85902 17.5959 2.86764 17.613 2.86964 17.6314L2.91986 18.0941C3.03396 18.1585 3.15476 18.2097 3.27998 18.2466L3.63496 17.9559C3.64915 17.9443 3.66704 17.9384 3.68518 17.9396C3.74108 17.9431 3.79715 17.9431 3.85305 17.9396H3.85745C3.87409 17.9395 3.89025 17.9453 3.90327 17.9559L4.25844 18.2468C4.3836 18.2097 4.50433 18.1584 4.61837 18.0939L4.66859 17.6314C4.67059 17.613 4.67921 17.5959 4.69278 17.5836C4.73472 17.5456 4.77437 17.505 4.81154 17.462C4.82358 17.4482 4.84023 17.4393 4.85827 17.4373ZM3.76912 15.6916C3.60963 15.6916 3.45373 15.74 3.32112 15.8306C3.18851 15.9213 3.08516 16.0502 3.02412 16.201C2.96309 16.3518 2.94712 16.5177 2.97824 16.6778C3.00935 16.8379 3.08615 16.9849 3.19892 17.1003C3.3117 17.2157 3.45538 17.2943 3.6118 17.3262C3.76822 17.358 3.93036 17.3417 4.0777 17.2792C4.22505 17.2167 4.35098 17.111 4.43959 16.9753C4.52819 16.8396 4.57549 16.68 4.57549 16.5168C4.57525 16.298 4.49021 16.0882 4.33904 15.9335C4.18787 15.7788 3.9829 15.6918 3.76912 15.6916ZM5.30727 16.4513C5.30886 16.495 5.30886 16.5387 5.30727 16.5826L5.59757 16.9528C5.60473 16.962 5.6097 16.9728 5.61205 16.9843C5.61441 16.9958 5.61409 17.0077 5.61113 17.0191C5.56791 17.185 5.50345 17.3445 5.41943 17.4932C5.41377 17.5034 5.40585 17.5121 5.3963 17.5186C5.38675 17.5252 5.37584 17.5293 5.36445 17.5307L4.90262 17.5832C4.87366 17.6153 4.84324 17.6464 4.8119 17.676L4.76059 18.1485C4.75921 18.1601 4.75517 18.1713 4.74881 18.1811C4.74244 18.1909 4.73392 18.199 4.72393 18.2048C4.57871 18.2912 4.42292 18.3576 4.26064 18.4021C4.25465 18.4037 4.24849 18.4045 4.24231 18.4045C4.22565 18.4045 4.20949 18.3987 4.19649 18.388L3.83381 18.0911C3.79117 18.0927 3.74841 18.0927 3.70552 18.0911L3.34302 18.388C3.33405 18.3953 3.32353 18.4004 3.31229 18.4028C3.30105 18.4052 3.28942 18.4049 3.27833 18.4019C3.11613 18.3576 2.96035 18.2917 2.81503 18.2057C2.80504 18.1999 2.79652 18.1918 2.79016 18.182C2.78379 18.1723 2.77976 18.1611 2.77838 18.1494L2.72706 17.6768C2.69572 17.6472 2.6653 17.616 2.63635 17.584L2.1747 17.5314C2.1633 17.53 2.15239 17.5259 2.14284 17.5194C2.13329 17.5129 2.12537 17.5042 2.11972 17.4939C2.03532 17.3454 1.97055 17.186 1.9271 17.02C1.92417 17.0086 1.92388 16.9967 1.92627 16.9852C1.92865 16.9737 1.93365 16.9629 1.94085 16.9538L2.23096 16.5822C2.22925 16.5386 2.22925 16.4948 2.23096 16.451L1.94085 16.08C1.93368 16.0708 1.92872 16.06 1.92636 16.0485C1.92401 16.037 1.92432 16.0251 1.92729 16.0138C1.97078 15.8479 2.03549 15.6887 2.11972 15.5402C2.12537 15.53 2.13329 15.5213 2.14284 15.5148C2.15239 15.5082 2.1633 15.5041 2.1747 15.5027L2.63561 15.4504C2.66465 15.4182 2.69491 15.3872 2.72633 15.3575L2.77764 14.8851C2.77902 14.8734 2.78306 14.8623 2.78942 14.8525C2.79579 14.8427 2.80431 14.8346 2.8143 14.8288C2.95947 14.7424 3.1152 14.6762 3.27741 14.6317C3.28852 14.6287 3.30016 14.6284 3.3114 14.6309C3.32263 14.6333 3.33315 14.6384 3.3421 14.6458L3.70516 14.9427C3.7478 14.9409 3.79056 14.9409 3.83344 14.9427L4.19594 14.6458C4.20491 14.6384 4.21544 14.6334 4.22667 14.6309C4.23791 14.6285 4.24954 14.6289 4.26064 14.6319C4.42268 14.6764 4.57828 14.7426 4.72338 14.8288C4.73337 14.8346 4.74189 14.8427 4.74826 14.8525C4.75462 14.8623 4.75866 14.8734 4.76004 14.8851L4.81117 15.3568C4.84259 15.3865 4.87285 15.4175 4.90189 15.4496L5.36353 15.5021C5.37493 15.5035 5.38584 15.5077 5.39539 15.5142C5.40494 15.5207 5.41286 15.5294 5.41851 15.5396C5.50295 15.6883 5.56772 15.8478 5.61113 16.014C5.61407 16.0253 5.61435 16.0372 5.61196 16.0487C5.60958 16.0602 5.60458 16.071 5.59738 16.0802L5.30727 16.4513ZM3.40257 17.0782C3.51107 17.1524 3.63863 17.192 3.76912 17.192C3.94409 17.192 4.11191 17.1208 4.23564 16.9942C4.35936 16.8676 4.42887 16.6959 4.42887 16.5168C4.42887 16.3833 4.39018 16.2527 4.31769 16.1417C4.24519 16.0306 4.14215 15.9441 4.02159 15.893C3.90104 15.8419 3.76838 15.8285 3.6404 15.8546C3.51242 15.8806 3.39486 15.9449 3.3026 16.0394C3.21033 16.1338 3.14749 16.2541 3.12203 16.3851C3.09658 16.516 3.10964 16.6518 3.15958 16.7752C3.20951 16.8985 3.29408 17.004 3.40257 17.0782Z" fill="white"/>
<path d="M23.0975 15.6916C22.938 15.6916 22.7821 15.74 22.6495 15.8306C22.5169 15.9213 22.4136 16.0502 22.3525 16.201C22.2915 16.3518 22.2755 16.5177 22.3067 16.6778C22.3378 16.8379 22.4146 16.9849 22.5273 17.1003C22.6401 17.2157 22.7838 17.2943 22.9402 17.3262C23.0966 17.358 23.2588 17.3417 23.4061 17.2792C23.5535 17.2167 23.6794 17.111 23.768 16.9753C23.8566 16.8396 23.9039 16.68 23.9039 16.5168C23.9037 16.298 23.8186 16.0882 23.6675 15.9335C23.5163 15.7788 23.3113 15.6918 23.0975 15.6916ZM23.0975 17.192C22.967 17.192 22.8395 17.1524 22.731 17.0782C22.6225 17.004 22.5379 16.8985 22.488 16.7752C22.4381 16.6518 22.425 16.516 22.4505 16.3851C22.4759 16.2541 22.5387 16.1338 22.631 16.0394C22.7233 15.9449 22.8408 15.8806 22.9688 15.8546C23.0968 15.8285 23.2295 15.8419 23.35 15.893C23.4706 15.9441 23.5736 16.0306 23.6461 16.1417C23.7186 16.2527 23.7573 16.3833 23.7573 16.5168C23.7573 16.6959 23.6878 16.8676 23.5641 16.9942C23.4403 17.1208 23.2725 17.192 23.0975 17.192ZM24.6357 16.5826C24.6373 16.5387 24.6373 16.495 24.6357 16.4513L24.9258 16.0802C24.933 16.071 24.938 16.0602 24.9404 16.0487C24.9428 16.0372 24.9425 16.0253 24.9395 16.014C24.8961 15.8478 24.8314 15.6883 24.7469 15.5396C24.7413 15.5294 24.7334 15.5207 24.7238 15.5142C24.7143 15.5077 24.7033 15.5035 24.692 15.5021L24.2303 15.4496C24.2013 15.4175 24.171 15.3865 24.1396 15.3568L24.0885 14.8851C24.0871 14.8734 24.083 14.8623 24.0767 14.8525C24.0703 14.8427 24.0618 14.8346 24.0518 14.8288C23.9067 14.7426 23.7511 14.6764 23.5891 14.6319C23.578 14.6289 23.5663 14.6285 23.5551 14.6309C23.5439 14.6334 23.5333 14.6384 23.5244 14.6458L23.1619 14.9427C23.119 14.9409 23.0762 14.9409 23.0336 14.9427L22.6705 14.6458C22.6616 14.6384 22.6511 14.6333 22.6398 14.6309C22.6286 14.6284 22.6169 14.6287 22.6058 14.6317C22.4436 14.6762 22.2879 14.7424 22.1427 14.8288C22.1327 14.8346 22.1242 14.8427 22.1178 14.8525C22.1115 14.8623 22.1074 14.8734 22.1061 14.8851L22.0547 15.3575C22.0233 15.3872 21.9931 15.4182 21.964 15.4504L21.5031 15.5027C21.4917 15.5041 21.4808 15.5082 21.4713 15.5148C21.4617 15.5213 21.4538 15.53 21.4481 15.5402C21.3639 15.6887 21.2992 15.8479 21.2557 16.0138C21.2527 16.0251 21.2524 16.037 21.2548 16.0485C21.2571 16.06 21.2621 16.0708 21.2693 16.08L21.5594 16.451C21.5577 16.4948 21.5577 16.5386 21.5594 16.5822L21.2693 16.9538C21.2621 16.9629 21.2571 16.9737 21.2547 16.9852C21.2523 16.9967 21.2526 17.0086 21.2555 17.02C21.299 17.186 21.3637 17.3454 21.4481 17.4939C21.4538 17.5042 21.4617 17.5129 21.4713 17.5194C21.4808 17.5259 21.4917 17.53 21.5031 17.5314L21.9648 17.584C21.9937 17.616 22.0241 17.6472 22.0555 17.6768L22.1068 18.1494C22.1082 18.1611 22.1122 18.1723 22.1186 18.182C22.1249 18.1918 22.1335 18.1999 22.1434 18.2057C22.2888 18.2917 22.4445 18.3576 22.6067 18.4019C22.6178 18.4049 22.6295 18.4052 22.6407 18.4028C22.6519 18.4004 22.6625 18.3953 22.6714 18.388L23.0339 18.0911C23.0768 18.0927 23.1196 18.0927 23.1622 18.0911L23.5249 18.388C23.5379 18.3987 23.5541 18.4045 23.5707 18.4045C23.5769 18.4045 23.5831 18.4037 23.5891 18.4021C23.7513 18.3576 23.9071 18.2912 24.0524 18.2048C24.0623 18.199 24.0709 18.1909 24.0772 18.1811C24.0836 18.1713 24.0876 18.1601 24.089 18.1485L24.1403 17.676C24.1717 17.6464 24.2021 17.6153 24.231 17.5832L24.6929 17.5307C24.7043 17.5293 24.7152 17.5252 24.7247 17.5186C24.7343 17.5121 24.7422 17.5034 24.7479 17.4932C24.8319 17.3445 24.8963 17.185 24.9395 17.0191C24.9425 17.0077 24.9428 16.9958 24.9405 16.9843C24.9381 16.9728 24.9332 16.962 24.926 16.9528L24.6357 16.5826ZM24.6388 17.3859L24.1867 17.4373C24.1687 17.4393 24.152 17.4482 24.14 17.462C24.1028 17.505 24.0631 17.5456 24.0212 17.5836C24.0076 17.5959 23.999 17.613 23.997 17.6314L23.9468 18.0939C23.8327 18.1584 23.712 18.2097 23.5869 18.2468L23.2317 17.9559C23.2187 17.9453 23.2025 17.9395 23.1859 17.9396H23.1815C23.1256 17.9431 23.0695 17.9431 23.0136 17.9396C22.9955 17.9384 22.9776 17.9443 22.9634 17.9559L22.6084 18.2466C22.4832 18.2097 22.3624 18.1585 22.2483 18.0941L22.1981 17.6314C22.1961 17.613 22.1874 17.5959 22.1739 17.5836C22.1319 17.5456 22.0923 17.505 22.0551 17.462C22.0431 17.4482 22.0264 17.4393 22.0084 17.4373L21.5564 17.3859C21.4934 17.2692 21.4433 17.1456 21.4071 17.0176L21.6913 16.6541C21.7027 16.6396 21.7084 16.6212 21.7073 16.6027C21.704 16.5455 21.704 16.4881 21.7073 16.4309C21.7084 16.4123 21.7027 16.394 21.6913 16.3795L21.4073 16.0162C21.4433 15.8881 21.4933 15.7644 21.5563 15.6477L22.0084 15.5963C22.0264 15.5942 22.0431 15.5854 22.0551 15.5715C22.0923 15.5286 22.1319 15.488 22.1739 15.45C22.1874 15.4377 22.1961 15.4206 22.1981 15.4022L22.2483 14.9397C22.3623 14.8752 22.483 14.8239 22.6082 14.7868L22.9634 15.0777C22.9776 15.0893 22.9955 15.0951 23.0136 15.094C23.0695 15.0905 23.1256 15.0905 23.1815 15.094C23.1996 15.0951 23.2175 15.0893 23.2317 15.0777L23.5867 14.787C23.7119 14.8239 23.8327 14.8751 23.9468 14.9395L23.997 15.4022C23.999 15.4206 24.0076 15.4377 24.0212 15.45C24.0631 15.488 24.1028 15.5286 24.14 15.5715C24.152 15.5854 24.1687 15.5942 24.1867 15.5963L24.6386 15.6477C24.7017 15.7644 24.7518 15.8879 24.788 16.016L24.5037 16.3795C24.4924 16.394 24.4867 16.4123 24.4878 16.4309C24.4911 16.4881 24.4911 16.5455 24.4878 16.6027C24.4867 16.6212 24.4924 16.6396 24.5037 16.6541L24.7878 17.0174C24.7517 17.1455 24.7018 17.2691 24.6388 17.3859Z" fill="#25559B"/>
<path fill-rule="evenodd" clip-rule="evenodd" d="M24.6388 17.3859L24.1867 17.4373C24.1687 17.4393 24.152 17.4482 24.14 17.462C24.1028 17.505 24.0631 17.5456 24.0212 17.5836C24.0076 17.5959 23.999 17.613 23.997 17.6314L23.9468 18.0939C23.8327 18.1584 23.712 18.2097 23.5869 18.2468L23.2317 17.9559C23.2187 17.9453 23.2025 17.9395 23.1859 17.9396H23.1815C23.1256 17.9431 23.0695 17.9431 23.0136 17.9396C22.9955 17.9384 22.9776 17.9443 22.9634 17.9559L22.6084 18.2466C22.4832 18.2097 22.3624 18.1585 22.2483 18.0941L22.1981 17.6314C22.1961 17.613 22.1874 17.5959 22.1739 17.5836C22.1319 17.5456 22.0923 17.505 22.0551 17.462C22.0431 17.4482 22.0264 17.4393 22.0084 17.4373L21.5564 17.3859C21.4934 17.2692 21.4433 17.1456 21.4071 17.0176L21.6913 16.6541C21.7027 16.6396 21.7084 16.6212 21.7073 16.6027C21.704 16.5455 21.704 16.4881 21.7073 16.4309C21.7084 16.4123 21.7027 16.394 21.6913 16.3795L21.4073 16.0162C21.4433 15.8881 21.4933 15.7644 21.5563 15.6477L22.0084 15.5963C22.0264 15.5942 22.0431 15.5854 22.0551 15.5715C22.0923 15.5286 22.1319 15.488 22.1739 15.45C22.1874 15.4377 22.1961 15.4206 22.1981 15.4022L22.2483 14.9397C22.3623 14.8752 22.483 14.8239 22.6082 14.7868L22.9634 15.0777C22.9776 15.0893 22.9955 15.0951 23.0136 15.094C23.0695 15.0905 23.1256 15.0905 23.1815 15.094C23.1996 15.0951 23.2175 15.0893 23.2317 15.0777L23.5867 14.787C23.7119 14.8239 23.8327 14.8751 23.9468 14.9395L23.997 15.4022C23.999 15.4206 24.0076 15.4377 24.0212 15.45C24.0631 15.488 24.1028 15.5286 24.14 15.5715C24.152 15.5854 24.1687 15.5942 24.1867 15.5963L24.6386 15.6477C24.7017 15.7644 24.7518 15.8879 24.788 16.016L24.5037 16.3795C24.4924 16.394 24.4867 16.4123 24.4878 16.4309C24.4911 16.4881 24.4911 16.5455 24.4878 16.6027C24.4867 16.6212 24.4924 16.6396 24.5037 16.6541L24.7878 17.0174C24.7517 17.1455 24.7018 17.2691 24.6388 17.3859ZM22.6495 15.8306C22.7821 15.74 22.938 15.6916 23.0975 15.6916C23.3113 15.6918 23.5163 15.7788 23.6675 15.9335C23.8186 16.0882 23.9037 16.298 23.9039 16.5168C23.9039 16.68 23.8566 16.8396 23.768 16.9753C23.6794 17.111 23.5535 17.2167 23.4061 17.2792C23.2588 17.3417 23.0966 17.358 22.9402 17.3262C22.7838 17.2943 22.6401 17.2157 22.5273 17.1003C22.4146 16.9849 22.3378 16.8379 22.3067 16.6778C22.2755 16.5177 22.2915 16.3518 22.3525 16.201C22.4136 16.0502 22.5169 15.9213 22.6495 15.8306Z" fill="white"/>
<path fill-rule="evenodd" clip-rule="evenodd" d="M24.1867 17.4373L24.6388 17.3859C24.7018 17.2691 24.7517 17.1455 24.7878 17.0174L24.5037 16.6541C24.4924 16.6396 24.4867 16.6212 24.4878 16.6027C24.4911 16.5455 24.4911 16.4881 24.4878 16.4309C24.4867 16.4123 24.4924 16.394 24.5037 16.3795L24.788 16.016C24.7518 15.8879 24.7017 15.7644 24.6386 15.6477L24.1867 15.5963C24.1687 15.5942 24.152 15.5854 24.14 15.5715C24.1028 15.5286 24.0631 15.488 24.0212 15.45C24.0076 15.4377 23.999 15.4206 23.997 15.4022L23.9468 14.9395C23.8327 14.8751 23.7119 14.8239 23.5867 14.787L23.2317 15.0777C23.2175 15.0893 23.1996 15.0951 23.1815 15.094C23.1256 15.0905 23.0695 15.0905 23.0136 15.094C22.9955 15.0951 22.9776 15.0893 22.9634 15.0777L22.6082 14.7868C22.483 14.8239 22.3623 14.8752 22.2483 14.9397L22.1981 15.4022C22.1961 15.4206 22.1874 15.4377 22.1739 15.45C22.1319 15.488 22.0923 15.5286 22.0551 15.5715C22.0431 15.5854 22.0264 15.5942 22.0084 15.5963L21.5563 15.6477C21.4933 15.7644 21.4433 15.8881 21.4073 16.0162L21.6913 16.3795C21.7027 16.394 21.7084 16.4123 21.7073 16.4309C21.704 16.4881 21.704 16.5455 21.7073 16.6027C21.7084 16.6212 21.7027 16.6396 21.6913 16.6541L21.4071 17.0176C21.4433 17.1456 21.4934 17.2692 21.5564 17.3859L22.0084 17.4373C22.0264 17.4393 22.0431 17.4482 22.0551 17.462C22.0923 17.505 22.1319 17.5456 22.1739 17.5836C22.1874 17.5959 22.1961 17.613 22.1981 17.6314L22.2483 18.0941C22.3624 18.1585 22.4832 18.2097 22.6084 18.2466L22.9634 17.9559C22.9776 17.9443 22.9955 17.9384 23.0136 17.9396C23.0695 17.9431 23.1256 17.9431 23.1815 17.9396H23.1859C23.2025 17.9395 23.2187 17.9453 23.2317 17.9559L23.5869 18.2468C23.712 18.2097 23.8327 18.1584 23.9468 18.0939L23.997 17.6314C23.999 17.613 24.0076 17.5959 24.0212 17.5836C24.0631 17.5456 24.1028 17.505 24.14 17.462C24.152 17.4482 24.1687 17.4393 24.1867 17.4373ZM23.0975 15.6916C22.938 15.6916 22.7821 15.74 22.6495 15.8306C22.5169 15.9213 22.4136 16.0502 22.3525 16.201C22.2915 16.3518 22.2755 16.5177 22.3067 16.6778C22.3378 16.8379 22.4146 16.9849 22.5273 17.1003C22.6401 17.2157 22.7838 17.2943 22.9402 17.3262C23.0966 17.358 23.2588 17.3417 23.4061 17.2792C23.5535 17.2167 23.6794 17.111 23.768 16.9753C23.8566 16.8396 23.9039 16.68 23.9039 16.5168C23.9037 16.298 23.8186 16.0882 23.6675 15.9335C23.5163 15.7788 23.3113 15.6918 23.0975 15.6916ZM24.6357 16.4513C24.6373 16.495 24.6373 16.5387 24.6357 16.5826L24.926 16.9528C24.9332 16.962 24.9381 16.9728 24.9405 16.9843C24.9428 16.9958 24.9425 17.0077 24.9395 17.0191C24.8963 17.185 24.8319 17.3445 24.7479 17.4932C24.7422 17.5034 24.7343 17.5121 24.7247 17.5186C24.7152 17.5252 24.7043 17.5293 24.6929 17.5307L24.231 17.5832C24.2021 17.6153 24.1717 17.6464 24.1403 17.676L24.089 18.1485C24.0876 18.1601 24.0836 18.1713 24.0772 18.1811C24.0709 18.1909 24.0623 18.199 24.0524 18.2048C23.9071 18.2912 23.7513 18.3576 23.5891 18.4021C23.5831 18.4037 23.5769 18.4045 23.5707 18.4045C23.5541 18.4045 23.5379 18.3987 23.5249 18.388L23.1622 18.0911C23.1196 18.0927 23.0768 18.0927 23.0339 18.0911L22.6714 18.388C22.6625 18.3953 22.6519 18.4004 22.6407 18.4028C22.6295 18.4052 22.6178 18.4049 22.6067 18.4019C22.4445 18.3576 22.2888 18.2917 22.1434 18.2057C22.1335 18.1999 22.1249 18.1918 22.1186 18.182C22.1122 18.1723 22.1082 18.1611 22.1068 18.1494L22.0555 17.6768C22.0241 17.6472 21.9937 17.616 21.9648 17.584L21.5031 17.5314C21.4917 17.53 21.4808 17.5259 21.4713 17.5194C21.4617 17.5129 21.4538 17.5042 21.4481 17.4939C21.3637 17.3454 21.299 17.186 21.2555 17.02C21.2526 17.0086 21.2523 16.9967 21.2547 16.9852C21.2571 16.9737 21.2621 16.9629 21.2693 16.9538L21.5594 16.5822C21.5577 16.5386 21.5577 16.4948 21.5594 16.451L21.2693 16.08C21.2621 16.0708 21.2571 16.06 21.2548 16.0485C21.2524 16.037 21.2527 16.0251 21.2557 16.0138C21.2992 15.8479 21.3639 15.6887 21.4481 15.5402C21.4538 15.53 21.4617 15.5213 21.4713 15.5148C21.4808 15.5082 21.4917 15.5041 21.5031 15.5027L21.964 15.4504C21.9931 15.4182 22.0233 15.3872 22.0547 15.3575L22.1061 14.8851C22.1074 14.8734 22.1115 14.8623 22.1178 14.8525C22.1242 14.8427 22.1327 14.8346 22.1427 14.8288C22.2879 14.7424 22.4436 14.6762 22.6058 14.6317C22.6169 14.6287 22.6286 14.6284 22.6398 14.6309C22.6511 14.6333 22.6616 14.6384 22.6705 14.6458L23.0336 14.9427C23.0762 14.9409 23.119 14.9409 23.1619 14.9427L23.5244 14.6458C23.5333 14.6384 23.5439 14.6334 23.5551 14.6309C23.5663 14.6285 23.578 14.6289 23.5891 14.6319C23.7511 14.6764 23.9067 14.7426 24.0518 14.8288C24.0618 14.8346 24.0703 14.8427 24.0767 14.8525C24.083 14.8623 24.0871 14.8734 24.0885 14.8851L24.1396 15.3568C24.171 15.3865 24.2013 15.4175 24.2303 15.4496L24.692 15.5021C24.7033 15.5035 24.7143 15.5077 24.7238 15.5142C24.7334 15.5207 24.7413 15.5294 24.7469 15.5396C24.8314 15.6883 24.8961 15.8478 24.9395 16.014C24.9425 16.0253 24.9428 16.0372 24.9404 16.0487C24.938 16.0602 24.933 16.071 24.9258 16.0802L24.6357 16.4513ZM22.731 17.0782C22.8395 17.1524 22.967 17.192 23.0975 17.192C23.2725 17.192 23.4403 17.1208 23.5641 16.9942C23.6878 16.8676 23.7573 16.6959 23.7573 16.5168C23.7573 16.3833 23.7186 16.2527 23.6461 16.1417C23.5736 16.0306 23.4706 15.9441 23.35 15.893C23.2295 15.8419 23.0968 15.8285 22.9688 15.8546C22.8408 15.8806 22.7233 15.9449 22.631 16.0394C22.5387 16.1338 22.4759 16.2541 22.4505 16.3851C22.425 16.516 22.4381 16.6518 22.488 16.7752C22.5379 16.8985 22.6225 17.004 22.731 17.0782Z" fill="white"/>
<path d="M46.9167 10.2756C46.8009 9.12973 46.3036 8.23958 45.425 7.60511C44.5463 6.97064 43.3539 6.65341 41.8476 6.65341C40.8241 6.65341 39.96 6.79545 39.2551 7.07955C38.5503 7.35417 38.0096 7.73769 37.633 8.23011C37.2661 8.72254 37.0827 9.28125 37.0827 9.90625C37.0633 10.4271 37.1744 10.8816 37.4158 11.2699C37.6668 11.6581 38.0096 11.9943 38.4441 12.2784C38.8786 12.553 39.3806 12.7945 39.9503 13.0028C40.52 13.2017 41.1283 13.3722 41.7752 13.5142L44.4401 14.1392C45.7339 14.4233 46.9216 14.8021 48.003 15.2756C49.0844 15.7491 50.021 16.3314 50.8127 17.0227C51.6044 17.714 52.2176 18.5284 52.6521 19.4659C53.0962 20.4034 53.3231 21.4782 53.3328 22.6903C53.3231 24.4706 52.8596 26.0142 51.9424 27.321C51.0348 28.6184 49.7216 29.6269 48.003 30.3466C46.2939 31.0568 44.2325 31.4119 41.8186 31.4119C39.4241 31.4119 37.3385 31.0521 35.5619 30.3324C33.795 29.6127 32.4142 28.5473 31.4197 27.1364C30.4349 25.7159 29.9183 23.9593 29.87 21.8665H35.9385C36.0061 22.8419 36.2909 23.6562 36.793 24.3097C37.3047 24.9536 37.9854 25.4413 38.8351 25.7727C39.6945 26.0947 40.6648 26.2557 41.7462 26.2557C42.8083 26.2557 43.7304 26.1042 44.5125 25.8011C45.3043 25.4981 45.9174 25.0767 46.3519 24.5369C46.7864 23.9972 47.0036 23.3769 47.0036 22.6761C47.0036 22.0227 46.8057 21.4735 46.4098 21.0284C46.0236 20.5833 45.4539 20.2045 44.7008 19.892C43.9573 19.5795 43.0449 19.2955 41.9635 19.0398L38.7337 18.2443C36.233 17.6477 34.2584 16.715 32.8101 15.446C31.3618 14.1771 30.6425 12.4678 30.6521 10.3182C30.6425 8.55682 31.1204 7.01799 32.086 5.70171C33.0612 4.38542 34.3984 3.35795 36.0978 2.61932C37.7972 1.88068 39.7282 1.51136 41.8911 1.51136C44.0925 1.51136 46.0139 1.88068 47.6554 2.61932C49.3064 3.35795 50.5906 4.38542 51.5079 5.70171C52.4252 7.01799 52.8983 8.54261 52.9272 10.2756H46.9167Z" fill="#25559B"/>
<path d="M63.8222 1.90909V31H57.551V1.90909H63.8222Z" fill="#25559B"/>
<path d="M68.9818 31V1.90909H75.253V14.7358H75.6441L86.3182 1.90909H93.8349L82.8277 14.9347L93.9653 31H86.463L78.338 19.0398L75.253 22.733V31H68.9818Z" fill="#EFAE00"/>
<path d="M102.213 31H95.4933L105.733 1.90909H113.814L124.04 31H117.319L109.89 8.55682H109.658L102.213 31ZM101.793 19.5653H117.667V24.3665H101.793V19.5653Z" fill="#EFAE00"/>
<path d="M127.61 31V1.90909H139.312C141.552 1.90909 143.464 2.30208 145.047 3.08807C146.641 3.86458 147.852 4.9678 148.683 6.39773C149.523 7.81818 149.943 9.48958 149.943 11.4119C149.943 13.3438 149.518 15.0057 148.668 16.3977C147.819 17.7803 146.587 18.8409 144.975 19.5795C143.372 20.3182 141.431 20.6875 139.153 20.6875H131.317V15.7443H138.139C139.336 15.7443 140.331 15.5833 141.122 15.2614C141.914 14.9394 142.503 14.4564 142.889 13.8125C143.285 13.1686 143.483 12.3684 143.483 11.4119C143.483 10.446 143.285 9.63163 142.889 8.96875C142.503 8.30587 141.909 7.80398 141.108 7.46307C140.316 7.11269 139.317 6.9375 138.11 6.9375H133.881V31H127.61ZM143.628 17.7614L151 31H144.077L136.864 17.7614H143.628Z" fill="#EFAE00"/>
<path d="M32.2718 37.4913C32.2544 37.3195 32.1798 37.1859 32.048 37.0908C31.9162 36.9956 31.7374 36.948 31.5114 36.948C31.3579 36.948 31.2283 36.9693 31.1225 37.0119C31.0168 37.0531 30.9357 37.1107 30.8792 37.1845C30.8242 37.2584 30.7967 37.3422 30.7967 37.4359C30.7938 37.5141 30.8104 37.5822 30.8466 37.6405C30.8843 37.6987 30.9357 37.7491 31.0009 37.7918C31.0661 37.833 31.1414 37.8692 31.2268 37.9004C31.3123 37.9303 31.4035 37.9558 31.5005 37.9771L31.9003 38.0709C32.0944 38.1135 32.2725 38.1703 32.4347 38.2413C32.5969 38.3124 32.7374 38.3997 32.8562 38.5034C32.9749 38.6071 33.0669 38.7293 33.1321 38.8699C33.1987 39.0105 33.2327 39.1717 33.2342 39.3536C33.2327 39.6206 33.1632 39.8521 33.0256 40.0482C32.8895 40.2428 32.6925 40.394 32.4347 40.502C32.1784 40.6085 31.8691 40.6618 31.5071 40.6618C31.1479 40.6618 30.835 40.6078 30.5686 40.4999C30.3035 40.3919 30.0964 40.2321 29.9472 40.0205C29.7995 39.8074 29.722 39.5439 29.7148 39.23H30.625C30.6352 39.3763 30.6779 39.4984 30.7532 39.5964C30.83 39.693 30.9321 39.7662 31.0595 39.8159C31.1884 39.8642 31.334 39.8884 31.4962 39.8884C31.6555 39.8884 31.7938 39.8656 31.9111 39.8202C32.0299 39.7747 32.1219 39.7115 32.1871 39.6305C32.2522 39.5496 32.2848 39.4565 32.2848 39.3514C32.2848 39.2534 32.2551 39.171 32.1957 39.1043C32.1378 39.0375 32.0524 38.9807 31.9394 38.9338C31.8279 38.8869 31.691 38.8443 31.5288 38.806L31.0443 38.6866C30.6692 38.5972 30.373 38.4572 30.1558 38.2669C29.9385 38.0766 29.8306 37.8202 29.8321 37.4977C29.8306 37.2335 29.9023 37.0027 30.0472 36.8053C30.1934 36.6078 30.394 36.4537 30.6489 36.3429C30.9038 36.2321 31.1935 36.1767 31.5179 36.1767C31.8481 36.1767 32.1364 36.2321 32.3826 36.3429C32.6302 36.4537 32.8229 36.6078 32.9605 36.8053C33.098 37.0027 33.169 37.2314 33.1734 37.4913H32.2718Z" fill="#25559B"/>
<path d="M33.8495 40.6V37.3273H34.775V40.6H33.8495ZM34.3144 36.9054C34.1769 36.9054 34.0588 36.8607 33.9603 36.7712C33.8633 36.6803 33.8148 36.5716 33.8148 36.4452C33.8148 36.3202 33.8633 36.2129 33.9603 36.1234C34.0588 36.0325 34.1769 35.9871 34.3144 35.9871C34.452 35.9871 34.5694 36.0325 34.6664 36.1234C34.7649 36.2129 34.8141 36.3202 34.8141 36.4452C34.8141 36.5716 34.7649 36.6803 34.6664 36.7712C34.5694 36.8607 34.452 36.9054 34.3144 36.9054Z" fill="#25559B"/>
<path d="M38.2928 38.2605L37.4455 38.3116C37.431 38.2406 37.3999 38.1767 37.3521 38.1199C37.3043 38.0616 37.2413 38.0155 37.1631 37.9814C37.0863 37.9459 36.9944 37.9281 36.8872 37.9281C36.7438 37.9281 36.6229 37.958 36.5244 38.0176C36.4259 38.0759 36.3767 38.154 36.3767 38.252C36.3767 38.3301 36.4085 38.3962 36.4723 38.4501C36.536 38.5041 36.6453 38.5474 36.8003 38.5801L37.4043 38.6994C37.7287 38.7648 37.9705 38.8699 38.1299 39.0148C38.2892 39.1597 38.3688 39.35 38.3688 39.5858C38.3688 39.8003 38.3044 39.9885 38.1755 40.1504C38.048 40.3124 37.8728 40.4388 37.6497 40.5297C37.4282 40.6192 37.1725 40.6639 36.8829 40.6639C36.4411 40.6639 36.0892 40.5737 35.827 40.3933C35.5663 40.2115 35.4135 39.9643 35.3686 39.6518L36.2789 39.605C36.3064 39.7371 36.3731 39.8379 36.4788 39.9075C36.5845 39.9757 36.7199 40.0098 36.885 40.0098C37.0472 40.0098 37.1776 39.9793 37.2761 39.9182C37.376 39.8557 37.4267 39.7754 37.4281 39.6774C37.4267 39.595 37.3912 39.5276 37.3217 39.475C37.2522 39.421 37.145 39.3798 37.0002 39.3514L36.4223 39.2385C36.0964 39.1746 35.8538 39.0638 35.6945 38.9061C35.5366 38.7484 35.4577 38.5474 35.4577 38.3031C35.4577 38.0929 35.5156 37.9118 35.6315 37.7598C35.7488 37.6078 35.9132 37.4906 36.1247 37.4082C36.3376 37.3259 36.5867 37.2847 36.872 37.2847C37.2935 37.2847 37.6251 37.372 37.867 37.5467C38.1103 37.7214 38.2522 37.9594 38.2928 38.2605Z" fill="#25559B"/>
<path d="M40.7265 37.3273V38.0091H38.717V37.3273H40.7265ZM39.1732 36.5432H40.0987V39.5943C40.0987 39.6781 40.1117 39.7435 40.1378 39.7903C40.1638 39.8358 40.2 39.8678 40.2464 39.8862C40.2942 39.9047 40.3492 39.9139 40.4115 39.9139C40.4549 39.9139 40.4984 39.9104 40.5418 39.9033C40.5853 39.8947 40.6186 39.8884 40.6418 39.8841L40.7873 40.5595C40.741 40.5737 40.6758 40.5901 40.5918 40.6085C40.5078 40.6284 40.4057 40.6405 40.2855 40.6447C40.0625 40.6533 39.8669 40.6241 39.6989 40.5574C39.5324 40.4906 39.4027 40.3869 39.3101 40.2463C39.2174 40.1057 39.1717 39.9281 39.1732 39.7136V36.5432Z" fill="#25559B"/>
<path d="M42.8143 40.6639C42.471 40.6639 42.1755 40.5957 41.9279 40.4594C41.6817 40.3216 41.4919 40.127 41.3587 39.8756C41.2255 39.6227 41.1588 39.3237 41.1588 38.9786C41.1588 38.6419 41.2255 38.3465 41.3587 38.0922C41.4919 37.8379 41.6795 37.6398 41.9214 37.4977C42.1647 37.3557 42.45 37.2847 42.7773 37.2847C42.9975 37.2847 43.2024 37.3195 43.3921 37.3891C43.5833 37.4572 43.7499 37.5602 43.8918 37.698C44.0352 37.8358 44.1467 38.0091 44.2264 38.2179C44.306 38.4253 44.3459 38.6682 44.3459 38.9466V39.1959H41.5282V38.6334H43.4747C43.4747 38.5027 43.4457 38.3869 43.3878 38.2861C43.3299 38.1852 43.2495 38.1064 43.1466 38.0496C43.0453 37.9913 42.9272 37.9622 42.7925 37.9622C42.652 37.9622 42.5275 37.9942 42.4189 38.0581C42.3117 38.1206 42.2277 38.2051 42.1669 38.3116C42.106 38.4168 42.0749 38.534 42.0734 38.6632V39.198C42.0734 39.3599 42.1039 39.4999 42.1647 39.6178C42.227 39.7357 42.3146 39.8266 42.4276 39.8905C42.5405 39.9544 42.6745 39.9864 42.8295 39.9864C42.9323 39.9864 43.0264 39.9722 43.1119 39.9438C43.1973 39.9153 43.2705 39.8727 43.3313 39.8159C43.3921 39.7591 43.4385 39.6895 43.4703 39.6071L44.3263 39.6625C44.2829 39.8642 44.1938 40.0403 44.0591 40.1909C43.9258 40.3401 43.7535 40.4565 43.542 40.5403C43.332 40.6227 43.0894 40.6639 42.8143 40.6639Z" fill="#25559B"/>
<path d="M44.9498 40.6V37.3273H45.8318V37.9047H45.8709C45.9404 37.7129 46.0563 37.5616 46.2185 37.4509C46.3807 37.3401 46.5748 37.2847 46.8008 37.2847C47.0296 37.2847 47.2244 37.3408 47.3851 37.453C47.5459 37.5638 47.6531 37.7143 47.7067 37.9047H47.7414C47.8095 37.7172 47.9326 37.5673 48.1108 37.4551C48.2903 37.3415 48.5025 37.2847 48.7473 37.2847C49.0587 37.2847 49.3114 37.382 49.5055 37.5766C49.701 37.7697 49.7988 38.0439 49.7988 38.399V40.6H48.8755V38.578C48.8755 38.3962 48.8262 38.2598 48.7277 38.1689C48.6292 38.078 48.5061 38.0325 48.3584 38.0325C48.1904 38.0325 48.0593 38.0851 47.9652 38.1902C47.8711 38.2939 47.824 38.431 47.824 38.6014V40.6H46.9268V38.5588C46.9268 38.3983 46.8797 38.2705 46.7855 38.1753C46.6929 38.0801 46.5705 38.0325 46.4184 38.0325C46.3156 38.0325 46.2229 38.0581 46.1403 38.1092C46.0592 38.1589 45.9948 38.2293 45.947 38.3202C45.8992 38.4097 45.8753 38.5148 45.8753 38.6355V40.6H44.9498Z" fill="#25559B"/>
<path d="M52.9038 36.2364V40.6H51.9631V36.2364H52.9038Z" fill="#25559B"/>
<path d="M54.5858 38.708V40.6H53.6603V37.3273H54.5424V37.9047H54.5815C54.6553 37.7143 54.7792 37.5638 54.953 37.453C55.1268 37.3408 55.3375 37.2847 55.5852 37.2847C55.8169 37.2847 56.0189 37.3344 56.1913 37.4338C56.3636 37.5332 56.4976 37.6753 56.5932 37.8599C56.6888 38.0432 56.7366 38.2619 56.7366 38.5162V40.6H55.8111V38.6781C55.8125 38.4778 55.7604 38.3216 55.6547 38.2094C55.5489 38.0957 55.4034 38.0389 55.218 38.0389C55.0934 38.0389 54.9834 38.0652 54.8878 38.1178C54.7936 38.1703 54.7198 38.247 54.6662 38.3479C54.6141 38.4473 54.5873 38.5673 54.5858 38.708Z" fill="#25559B"/>
<path d="M59.2604 37.3273V38.0091H57.2009V37.3273H59.2604ZM57.6724 40.6V37.0908C57.6724 36.8535 57.7194 36.6568 57.8136 36.5006C57.9092 36.3443 58.0395 36.2271 58.2046 36.149C58.3697 36.0709 58.5573 36.0318 58.7673 36.0318C58.9092 36.0318 59.0388 36.0425 59.1562 36.0638C59.2749 36.0851 59.3633 36.1043 59.4212 36.1213L59.2561 36.8031C59.2199 36.7918 59.175 36.7811 59.1214 36.7712C59.0693 36.7612 59.0157 36.7563 58.9606 36.7563C58.8245 36.7563 58.7296 36.7875 58.676 36.85C58.6225 36.9111 58.5957 36.997 58.5957 37.1078V40.6H57.6724Z" fill="#25559B"/>
<path d="M61.214 40.6639C60.8766 40.6639 60.5847 40.5936 60.3385 40.453C60.0938 40.3109 59.9048 40.1135 59.7715 39.8607C59.6383 39.6064 59.5716 39.3116 59.5716 38.9764C59.5716 38.6384 59.6383 38.3429 59.7715 38.0901C59.9048 37.8358 60.0938 37.6384 60.3385 37.4977C60.5847 37.3557 60.8766 37.2847 61.214 37.2847C61.5515 37.2847 61.8426 37.3557 62.0874 37.4977C62.3336 37.6384 62.5233 37.8358 62.6566 38.0901C62.7898 38.3429 62.8564 38.6384 62.8564 38.9764C62.8564 39.3116 62.7898 39.6064 62.6566 39.8607C62.5233 40.1135 62.3336 40.3109 62.0874 40.453C61.8426 40.5936 61.5515 40.6639 61.214 40.6639ZM61.2184 39.9608C61.3719 39.9608 61.5001 39.9182 61.6029 39.833C61.7057 39.7463 61.7832 39.6284 61.8354 39.4793C61.889 39.3301 61.9157 39.1604 61.9157 38.97C61.9157 38.7797 61.889 38.6099 61.8354 38.4608C61.7832 38.3116 61.7057 38.1937 61.6029 38.1071C61.5001 38.0205 61.3719 37.9771 61.2184 37.9771C61.0634 37.9771 60.9331 38.0205 60.8273 38.1071C60.7231 38.1937 60.6441 38.3116 60.5905 38.4608C60.5384 38.6099 60.5123 38.7797 60.5123 38.97C60.5123 39.1604 60.5384 39.3301 60.5905 39.4793C60.6441 39.6284 60.7231 39.7463 60.8273 39.833C60.9331 39.9182 61.0634 39.9608 61.2184 39.9608Z" fill="#25559B"/>
<path d="M63.4582 40.6V37.3273H64.3554V37.8983H64.3902C64.451 37.6952 64.5531 37.5418 64.6965 37.4381C64.8399 37.333 65.005 37.2804 65.1918 37.2804C65.2382 37.2804 65.2882 37.2832 65.3417 37.2889C65.3953 37.2946 65.4424 37.3024 65.4829 37.3124V38.1178C65.4395 38.105 65.3794 38.0936 65.3026 38.0837C65.2259 38.0737 65.1556 38.0688 65.0919 38.0688C64.9558 38.0688 64.8341 38.0979 64.7269 38.1561C64.6212 38.2129 64.5372 38.2925 64.4749 38.3947C64.4141 38.497 64.3837 38.6149 64.3837 38.7484V40.6H63.4582Z" fill="#25559B"/>
<path d="M65.9614 40.6V37.3273H66.8435V37.9047H66.8826C66.9521 37.7129 67.0679 37.5616 67.2302 37.4509C67.3924 37.3401 67.5864 37.2847 67.8124 37.2847C68.0412 37.2847 68.236 37.3408 68.3968 37.453C68.5575 37.5638 68.6647 37.7143 68.7183 37.9047H68.7531C68.8211 37.7172 68.9442 37.5673 69.1224 37.4551C69.302 37.3415 69.5142 37.2847 69.7589 37.2847C70.0703 37.2847 70.323 37.382 70.5171 37.5766C70.7126 37.7697 70.8104 38.0439 70.8104 38.399V40.6H69.8871V38.578C69.8871 38.3962 69.8379 38.2598 69.7394 38.1689C69.6409 38.078 69.5178 38.0325 69.37 38.0325C69.202 38.0325 69.071 38.0851 68.9768 38.1902C68.8827 38.2939 68.8356 38.431 68.8356 38.6014V40.6H67.9384V38.5588C67.9384 38.3983 67.8913 38.2705 67.7972 38.1753C67.7045 38.0801 67.5821 38.0325 67.43 38.0325C67.3272 38.0325 67.2345 38.0581 67.152 38.1092C67.0708 38.1589 67.0064 38.2293 66.9586 38.3202C66.9108 38.4097 66.8869 38.5148 66.8869 38.6355V40.6H65.9614Z" fill="#25559B"/>
<path d="M72.493 40.6618C72.2801 40.6618 72.0903 40.6256 71.9238 40.5531C71.7572 40.4793 71.6254 40.3706 71.5284 40.2271C71.4328 40.0822 71.385 39.9018 71.385 39.6859C71.385 39.5041 71.4191 39.3514 71.4871 39.2278C71.5552 39.1043 71.6479 39.0048 71.7652 38.9295C71.8825 38.8543 72.0158 38.7974 72.1649 38.7591C72.3156 38.7207 72.4734 38.6938 72.6385 38.6781C72.8326 38.6582 72.989 38.6398 73.1078 38.6227C73.2266 38.6043 73.3127 38.5773 73.3663 38.5418C73.4199 38.5062 73.4467 38.4537 73.4467 38.3841V38.3713C73.4467 38.2364 73.4033 38.132 73.3164 38.0581C73.2309 37.9842 73.1092 37.9473 72.9514 37.9473C72.7848 37.9473 72.6523 37.9835 72.5538 38.056C72.4553 38.127 72.3902 38.2165 72.3583 38.3244L71.5023 38.2563C71.5458 38.0574 71.6312 37.8855 71.7587 37.7406C71.8861 37.5943 72.0505 37.4821 72.2518 37.404C72.4546 37.3244 72.6892 37.2847 72.9557 37.2847C73.1411 37.2847 73.3185 37.306 73.488 37.3486C73.6589 37.3912 73.8102 37.4572 73.942 37.5467C74.0753 37.6362 74.1803 37.7513 74.257 37.8919C74.3338 38.0311 74.3722 38.198 74.3722 38.3926V40.6H73.4945V40.1462H73.4684C73.4148 40.2484 73.3431 40.3386 73.2533 40.4168C73.1636 40.4935 73.0557 40.5538 72.9296 40.5979C72.8036 40.6405 72.6581 40.6618 72.493 40.6618ZM72.758 40.0354C72.8942 40.0354 73.0144 40.0091 73.1187 39.9565C73.2229 39.9026 73.3048 39.8301 73.3641 39.7392C73.4235 39.6483 73.4532 39.5453 73.4532 39.4303V39.083C73.4242 39.1014 73.3844 39.1185 73.3337 39.1341C73.2845 39.1483 73.2287 39.1618 73.1665 39.1746C73.1042 39.1859 73.0419 39.1966 72.9796 39.2065C72.9173 39.2151 72.8609 39.2229 72.8102 39.23C72.7015 39.2456 72.6067 39.2705 72.5256 39.3045C72.4445 39.3386 72.3815 39.3848 72.3366 39.443C72.2917 39.4999 72.2692 39.5709 72.2692 39.6561C72.2692 39.7797 72.3148 39.8741 72.4061 39.9395C72.4988 40.0034 72.6161 40.0354 72.758 40.0354Z" fill="#25559B"/>
<path d="M77.8666 38.2605L77.0193 38.3116C77.0049 38.2406 76.9737 38.1767 76.9259 38.1199C76.8781 38.0616 76.8151 38.0155 76.7369 37.9814C76.6602 37.9459 76.5682 37.9281 76.461 37.9281C76.3176 37.9281 76.1967 37.958 76.0982 38.0176C75.9997 38.0759 75.9505 38.154 75.9505 38.252C75.9505 38.3301 75.9823 38.3962 76.0461 38.4501C76.1098 38.5041 76.2191 38.5474 76.3741 38.5801L76.9781 38.6994C77.3025 38.7648 77.5443 38.8699 77.7037 39.0148C77.863 39.1597 77.9426 39.35 77.9426 39.5858C77.9426 39.8003 77.8782 39.9885 77.7493 40.1504C77.6218 40.3124 77.4466 40.4388 77.2235 40.5297C77.002 40.6192 76.7463 40.6639 76.4567 40.6639C76.0149 40.6639 75.663 40.5737 75.4008 40.3933C75.1401 40.2115 74.9874 39.9643 74.9425 39.6518L75.8527 39.605C75.8802 39.7371 75.9469 39.8379 76.0526 39.9075C76.1583 39.9757 76.2937 40.0098 76.4588 40.0098C76.621 40.0098 76.7514 39.9793 76.8499 39.9182C76.9498 39.8557 77.0005 39.7754 77.002 39.6774C77.0005 39.595 76.965 39.5276 76.8955 39.475C76.826 39.421 76.7188 39.3798 76.574 39.3514L75.9961 39.2385C75.6702 39.1746 75.4276 39.0638 75.2683 38.9061C75.1105 38.7484 75.0315 38.5474 75.0315 38.3031C75.0315 38.0929 75.0895 37.9118 75.2053 37.7598C75.3226 37.6078 75.487 37.4906 75.6985 37.4082C75.9114 37.3259 76.1605 37.2847 76.4458 37.2847C76.8673 37.2847 77.1989 37.372 77.4408 37.5467C77.6841 37.7214 77.826 37.9594 77.8666 38.2605Z" fill="#25559B"/>
<path d="M78.5254 40.6V37.3273H79.4509V40.6H78.5254ZM78.9903 36.9054C78.8527 36.9054 78.7347 36.8607 78.6362 36.7712C78.5392 36.6803 78.4906 36.5716 78.4906 36.4452C78.4906 36.3202 78.5392 36.2129 78.6362 36.1234C78.7347 36.0325 78.8527 35.9871 78.9903 35.9871C79.1279 35.9871 79.2452 36.0325 79.3423 36.1234C79.4407 36.2129 79.49 36.3202 79.49 36.4452C79.49 36.5716 79.4407 36.6803 79.3423 36.7712C79.2452 36.8607 79.1279 36.9054 78.9903 36.9054Z" fill="#25559B"/>
<path d="M81.6255 40.6V36.2364H82.5662V38.1604H82.6249L84.226 36.2364H85.3535L83.7024 38.1902L85.373 40.6H84.2477L83.0289 38.806L82.5662 39.3599V40.6H81.6255Z" fill="#EFAE00"/>
<path d="M87.1018 40.6639C86.7585 40.6639 86.4631 40.5957 86.2154 40.4594C85.9692 40.3216 85.7795 40.127 85.6462 39.8756C85.513 39.6227 85.4464 39.3237 85.4464 38.9786C85.4464 38.6419 85.513 38.3465 85.6462 38.0922C85.7795 37.8379 85.967 37.6398 86.2089 37.4977C86.4522 37.3557 86.7375 37.2847 87.0649 37.2847C87.285 37.2847 87.4899 37.3195 87.6797 37.3891C87.8708 37.4572 88.0374 37.5602 88.1793 37.698C88.3227 37.8358 88.4342 38.0091 88.5139 38.2179C88.5936 38.4253 88.6334 38.6682 88.6334 38.9466V39.1959H85.8157V38.6334H87.7622C87.7622 38.5027 87.7333 38.3869 87.6753 38.2861C87.6174 38.1852 87.537 38.1064 87.4342 38.0496C87.3328 37.9913 87.2148 37.9622 87.0801 37.9622C86.9396 37.9622 86.815 37.9942 86.7064 38.0581C86.5992 38.1206 86.5152 38.2051 86.4544 38.3116C86.3936 38.4168 86.3624 38.534 86.361 38.6632V39.198C86.361 39.3599 86.3914 39.4999 86.4522 39.6178C86.5145 39.7357 86.6021 39.8266 86.7151 39.8905C86.8281 39.9544 86.962 39.9864 87.117 39.9864C87.2198 39.9864 87.314 39.9722 87.3994 39.9438C87.4849 39.9153 87.558 39.8727 87.6188 39.8159C87.6797 39.7591 87.726 39.6895 87.7579 39.6071L88.6138 39.6625C88.5704 39.8642 88.4813 40.0403 88.3466 40.1909C88.2134 40.3401 88.041 40.4565 87.8296 40.5403C87.6196 40.6227 87.377 40.6639 87.1018 40.6639Z" fill="#EFAE00"/>
<path d="M90.1628 38.708V40.6H89.2373V37.3273H90.1194V37.9047H90.1585C90.2323 37.7143 90.3562 37.5638 90.53 37.453C90.7038 37.3408 90.9145 37.2847 91.1621 37.2847C91.3939 37.2847 91.5959 37.3344 91.7683 37.4338C91.9406 37.5332 92.0746 37.6753 92.1702 37.8599C92.2658 38.0432 92.3136 38.2619 92.3136 38.5162V40.6H91.3881V38.6781C91.3895 38.4778 91.3374 38.3216 91.2317 38.2094C91.1259 38.0957 90.9804 38.0389 90.795 38.0389C90.6704 38.0389 90.5604 38.0652 90.4648 38.1178C90.3706 38.1703 90.2968 38.247 90.2432 38.3479C90.191 38.4473 90.1643 38.5673 90.1628 38.708Z" fill="#EFAE00"/>
<path d="M94.2726 40.6533C94.0191 40.6533 93.7896 40.5893 93.5839 40.4615C93.3797 40.3322 93.2175 40.1426 93.0973 39.8926C92.9785 39.6412 92.9191 39.333 92.9191 38.9679C92.9191 38.5929 92.9807 38.2811 93.1038 38.0325C93.2269 37.7825 93.3906 37.5957 93.5948 37.4722C93.8004 37.3472 94.0257 37.2847 94.2704 37.2847C94.4572 37.2847 94.6129 37.3159 94.7375 37.3784C94.8635 37.4395 94.9649 37.5162 95.0416 37.6085C95.1199 37.6994 95.1792 37.7889 95.2198 37.877H95.248V36.2364H96.1713V40.6H95.2589V40.0759H95.2198C95.1763 40.1668 95.1148 40.257 95.0351 40.3464C94.9569 40.4345 94.8548 40.5077 94.7288 40.5659C94.6043 40.6241 94.4522 40.6533 94.2726 40.6533ZM94.5659 39.931C94.715 39.931 94.8411 39.8912 94.9439 39.8116C95.0482 39.7307 95.1278 39.6178 95.1829 39.4729C95.2393 39.328 95.2676 39.1582 95.2676 38.9636C95.2676 38.769 95.2401 38.6 95.185 38.4565C95.13 38.3131 95.0503 38.2023 94.9461 38.1241C94.8418 38.046 94.715 38.007 94.5659 38.007C94.4138 38.007 94.2856 38.0474 94.1814 38.1284C94.0771 38.2094 93.9981 38.3216 93.9445 38.4651C93.891 38.6085 93.8642 38.7747 93.8642 38.9636C93.8642 39.154 93.891 39.3223 93.9445 39.4686C93.9996 39.6135 94.0785 39.7271 94.1814 39.8095C94.2856 39.8905 94.4138 39.931 94.5659 39.931Z" fill="#EFAE00"/>
<path d="M97.8838 40.6618C97.6709 40.6618 97.4812 40.6256 97.3146 40.5531C97.148 40.4793 97.0163 40.3706 96.9192 40.2271C96.8236 40.0822 96.7758 39.9018 96.7758 39.6859C96.7758 39.5041 96.8099 39.3514 96.8779 39.2278C96.946 39.1043 97.0387 39.0048 97.156 38.9295C97.2733 38.8543 97.4066 38.7974 97.5557 38.7591C97.7064 38.7207 97.8642 38.6938 98.0293 38.6781C98.2234 38.6582 98.3798 38.6398 98.4986 38.6227C98.6174 38.6043 98.7035 38.5773 98.7571 38.5418C98.8107 38.5062 98.8375 38.4537 98.8375 38.3841V38.3713C98.8375 38.2364 98.7941 38.132 98.7072 38.0581C98.6217 37.9842 98.5 37.9473 98.3422 37.9473C98.1756 37.9473 98.0431 37.9835 97.9446 38.056C97.8461 38.127 97.781 38.2165 97.7491 38.3244L96.8931 38.2563C96.9366 38.0574 97.022 37.8855 97.1495 37.7406C97.2769 37.5943 97.4413 37.4821 97.6426 37.404C97.8454 37.3244 98.08 37.2847 98.3465 37.2847C98.5319 37.2847 98.7093 37.306 98.8788 37.3486C99.0497 37.3912 99.201 37.4572 99.3328 37.5467C99.4661 37.6362 99.5711 37.7513 99.6478 37.8919C99.7246 38.0311 99.763 38.198 99.763 38.3926V40.6H98.8853V40.1462H98.8592C98.8056 40.2484 98.7339 40.3386 98.6442 40.4168C98.5544 40.4935 98.4465 40.5538 98.3204 40.5979C98.1945 40.6405 98.0489 40.6618 97.8838 40.6618ZM98.1488 40.0354C98.285 40.0354 98.4052 40.0091 98.5095 39.9565C98.6137 39.9026 98.6956 39.8301 98.7549 39.7392C98.8143 39.6483 98.844 39.5453 98.844 39.4303V39.083C98.8151 39.1014 98.7752 39.1185 98.7245 39.1341C98.6753 39.1483 98.6195 39.1618 98.5573 39.1746C98.495 39.1859 98.4327 39.1966 98.3704 39.2065C98.3081 39.2151 98.2517 39.2229 98.201 39.23C98.0923 39.2456 97.9975 39.2705 97.9164 39.3045C97.8353 39.3386 97.7723 39.3848 97.7274 39.443C97.6825 39.4999 97.66 39.5709 97.66 39.6561C97.66 39.7797 97.7056 39.8741 97.7969 39.9395C97.8896 40.0034 98.0069 40.0354 98.1488 40.0354Z" fill="#EFAE00"/>
<path d="M100.481 40.6V37.3273H101.378V37.8983H101.413C101.474 37.6952 101.576 37.5418 101.719 37.4381C101.863 37.333 102.028 37.2804 102.215 37.2804C102.261 37.2804 102.311 37.2832 102.365 37.2889C102.418 37.2946 102.465 37.3024 102.506 37.3124V38.1178C102.462 38.105 102.402 38.0936 102.325 38.0837C102.249 38.0737 102.178 38.0688 102.115 38.0688C101.979 38.0688 101.857 38.0979 101.75 38.1561C101.644 38.2129 101.56 38.2925 101.498 38.3947C101.437 38.497 101.406 38.6149 101.406 38.7484V40.6H100.481Z" fill="#EFAE00"/>
<path d="M103.84 40.6618C103.627 40.6618 103.438 40.6256 103.271 40.5531C103.104 40.4793 102.973 40.3706 102.876 40.2271C102.78 40.0822 102.732 39.9018 102.732 39.6859C102.732 39.5041 102.766 39.3514 102.834 39.2278C102.902 39.1043 102.995 39.0048 103.112 38.9295C103.23 38.8543 103.363 38.7974 103.512 38.7591C103.663 38.7207 103.821 38.6938 103.986 38.6781C104.18 38.6582 104.336 38.6398 104.455 38.6227C104.574 38.6043 104.66 38.5773 104.714 38.5418C104.767 38.5062 104.794 38.4537 104.794 38.3841V38.3713C104.794 38.2364 104.75 38.132 104.664 38.0581C104.578 37.9842 104.456 37.9473 104.299 37.9473C104.132 37.9473 103.999 37.9835 103.901 38.056C103.803 38.127 103.737 38.2165 103.705 38.3244L102.85 38.2563C102.893 38.0574 102.978 37.8855 103.106 37.7406C103.233 37.5943 103.398 37.4821 103.599 37.404C103.802 37.3244 104.036 37.2847 104.303 37.2847C104.488 37.2847 104.666 37.306 104.835 37.3486C105.006 37.3912 105.157 37.4572 105.289 37.5467C105.422 37.6362 105.527 37.7513 105.604 37.8919C105.681 38.0311 105.719 38.198 105.719 38.3926V40.6H104.842V40.1462H104.816C104.762 40.2484 104.69 40.3386 104.601 40.4168C104.511 40.4935 104.403 40.5538 104.277 40.5979C104.151 40.6405 104.005 40.6618 103.84 40.6618ZM104.105 40.0354C104.241 40.0354 104.362 40.0091 104.466 39.9565C104.57 39.9026 104.652 39.8301 104.711 39.7392C104.771 39.6483 104.8 39.5453 104.8 39.4303V39.083C104.771 39.1014 104.732 39.1185 104.681 39.1341C104.632 39.1483 104.576 39.1618 104.514 39.1746C104.451 39.1859 104.389 39.1966 104.327 39.2065C104.265 39.2151 104.208 39.2229 104.157 39.23C104.049 39.2456 103.954 39.2705 103.873 39.3045C103.792 39.3386 103.729 39.3848 103.684 39.443C103.639 39.4999 103.616 39.5709 103.616 39.6561C103.616 39.7797 103.662 39.8741 103.753 39.9395C103.846 40.0034 103.963 40.0354 104.105 40.0354Z" fill="#EFAE00"/>
<path d="M107.389 40.6618C107.176 40.6618 106.986 40.6256 106.82 40.5531C106.653 40.4793 106.521 40.3706 106.424 40.2271C106.329 40.0822 106.281 39.9018 106.281 39.6859C106.281 39.5041 106.315 39.3514 106.383 39.2278C106.451 39.1043 106.544 39.0048 106.661 38.9295C106.778 38.8543 106.912 38.7974 107.061 38.7591C107.211 38.7207 107.369 38.6938 107.534 38.6781C107.729 38.6582 107.885 38.6398 108.004 38.6227C108.122 38.6043 108.209 38.5773 108.262 38.5418C108.316 38.5062 108.343 38.4537 108.343 38.3841V38.3713C108.343 38.2364 108.299 38.132 108.212 38.0581C108.127 37.9842 108.005 37.9473 107.847 37.9473C107.681 37.9473 107.548 37.9835 107.45 38.056C107.351 38.127 107.286 38.2165 107.254 38.3244L106.398 38.2563C106.442 38.0574 106.527 37.8855 106.655 37.7406C106.782 37.5943 106.946 37.4821 107.148 37.404C107.351 37.3244 107.585 37.2847 107.852 37.2847C108.037 37.2847 108.214 37.306 108.384 37.3486C108.555 37.3912 108.706 37.4572 108.838 37.5467C108.971 37.6362 109.076 37.7513 109.153 37.8919C109.23 38.0311 109.268 38.198 109.268 38.3926V40.6H108.39V40.1462H108.364C108.311 40.2484 108.239 40.3386 108.149 40.4168C108.059 40.4935 107.952 40.5538 107.826 40.5979C107.7 40.6405 107.554 40.6618 107.389 40.6618ZM107.654 40.0354C107.79 40.0354 107.91 40.0091 108.015 39.9565C108.119 39.9026 108.201 39.8301 108.26 39.7392C108.319 39.6483 108.349 39.5453 108.349 39.4303V39.083C108.32 39.1014 108.28 39.1185 108.23 39.1341C108.18 39.1483 108.125 39.1618 108.062 39.1746C108 39.1859 107.938 39.1966 107.876 39.2065C107.813 39.2151 107.757 39.2229 107.706 39.23C107.597 39.2456 107.503 39.2705 107.421 39.3045C107.34 39.3386 107.277 39.3848 107.232 39.443C107.188 39.4999 107.165 39.5709 107.165 39.6561C107.165 39.7797 107.211 39.8741 107.302 39.9395C107.395 40.0034 107.512 40.0354 107.654 40.0354Z" fill="#EFAE00"/>
<path d="M110.912 38.708V40.6H109.986V37.3273H110.868V37.9047H110.907C110.981 37.7143 111.105 37.5638 111.279 37.453C111.453 37.3408 111.663 37.2847 111.911 37.2847C112.143 37.2847 112.345 37.3344 112.517 37.4338C112.689 37.5332 112.823 37.6753 112.919 37.8599C113.015 38.0432 113.062 38.2619 113.062 38.5162V40.6H112.137V38.6781C112.138 38.4778 112.086 38.3216 111.98 38.2094C111.875 38.0957 111.729 38.0389 111.544 38.0389C111.419 38.0389 111.309 38.0652 111.214 38.1178C111.119 38.1703 111.046 38.247 110.992 38.3479C110.94 38.4473 110.913 38.5673 110.912 38.708Z" fill="#EFAE00"/>
<path d="M115.225 40.6V36.2364H116.98C117.318 36.2364 117.605 36.2996 117.843 36.426C118.08 36.551 118.261 36.725 118.386 36.948C118.512 37.1696 118.575 37.4253 118.575 37.7151C118.575 38.0048 118.511 38.2605 118.384 38.4821C118.256 38.7037 118.072 38.8763 117.83 38.9999C117.589 39.1234 117.298 39.1852 116.956 39.1852H115.838V38.4459H116.804C116.985 38.4459 117.135 38.4153 117.252 38.3543C117.371 38.2918 117.459 38.2058 117.517 38.0964C117.576 37.9857 117.606 37.8585 117.606 37.7151C117.606 37.5702 117.576 37.4437 117.517 37.3358C117.459 37.2264 117.371 37.1419 117.252 37.0822C117.133 37.0212 116.983 36.9906 116.8 36.9906H116.166V40.6H115.225Z" fill="#EFAE00"/>
<path d="M120.636 40.6639C120.292 40.6639 119.997 40.5957 119.749 40.4594C119.503 40.3216 119.313 40.127 119.18 39.8756C119.047 39.6227 118.98 39.3237 118.98 38.9786C118.98 38.6419 119.047 38.3465 119.18 38.0922C119.313 37.8379 119.501 37.6398 119.743 37.4977C119.986 37.3557 120.271 37.2847 120.599 37.2847C120.819 37.2847 121.024 37.3195 121.213 37.3891C121.405 37.4572 121.571 37.5602 121.713 37.698C121.856 37.8358 121.968 38.0091 122.048 38.2179C122.127 38.4253 122.167 38.6682 122.167 38.9466V39.1959H119.349V38.6334H121.296C121.296 38.5027 121.267 38.3869 121.209 38.2861C121.151 38.1852 121.071 38.1064 120.968 38.0496C120.867 37.9913 120.749 37.9622 120.614 37.9622C120.473 37.9622 120.349 37.9942 120.24 38.0581C120.133 38.1206 120.049 38.2051 119.988 38.3116C119.927 38.4168 119.896 38.534 119.895 38.6632V39.198C119.895 39.3599 119.925 39.4999 119.986 39.6178C120.048 39.7357 120.136 39.8266 120.249 39.8905C120.362 39.9544 120.496 39.9864 120.651 39.9864C120.754 39.9864 120.848 39.9722 120.933 39.9438C121.019 39.9153 121.092 39.8727 121.153 39.8159C121.213 39.7591 121.26 39.6895 121.292 39.6071L122.148 39.6625C122.104 39.8642 122.015 40.0403 121.88 40.1909C121.747 40.3401 121.575 40.4565 121.363 40.5403C121.153 40.6227 120.911 40.6639 120.636 40.6639Z" fill="#EFAE00"/>
<path d="M122.771 40.6V37.3273H123.668V37.8983H123.703C123.764 37.6952 123.866 37.5418 124.009 37.4381C124.153 37.333 124.318 37.2804 124.505 37.2804C124.551 37.2804 124.601 37.2832 124.655 37.2889C124.708 37.2946 124.755 37.3024 124.796 37.3124V38.1178C124.752 38.105 124.692 38.0936 124.616 38.0837C124.539 38.0737 124.469 38.0688 124.405 38.0688C124.269 38.0688 124.147 38.0979 124.04 38.1561C123.934 38.2129 123.85 38.2925 123.788 38.3947C123.727 38.497 123.697 38.6149 123.697 38.7484V40.6H122.771Z" fill="#EFAE00"/>
<path d="M127.414 39.2065V37.3273H128.34V40.6H127.451V40.0055H127.416C127.341 40.1973 127.216 40.3514 127.041 40.4679C126.867 40.5844 126.655 40.6426 126.404 40.6426C126.181 40.6426 125.985 40.5929 125.815 40.4935C125.646 40.394 125.513 40.2527 125.418 40.0695C125.324 39.8862 125.276 39.6668 125.274 39.4111V37.3273H126.2V39.2491C126.201 39.4423 126.254 39.595 126.358 39.7072C126.463 39.8195 126.602 39.8756 126.778 39.8756C126.889 39.8756 126.994 39.8507 127.091 39.801C127.188 39.7499 127.266 39.6746 127.325 39.5751C127.386 39.4757 127.416 39.3528 127.414 39.2065Z" fill="#EFAE00"/>
<path d="M131.856 38.2605L131.009 38.3116C130.995 38.2406 130.964 38.1767 130.916 38.1199C130.868 38.0616 130.805 38.0155 130.727 37.9814C130.65 37.9459 130.558 37.9281 130.451 37.9281C130.307 37.9281 130.186 37.958 130.088 38.0176C129.99 38.0759 129.94 38.154 129.94 38.252C129.94 38.3301 129.972 38.3962 130.036 38.4501C130.1 38.5041 130.209 38.5474 130.364 38.5801L130.968 38.6994C131.292 38.7648 131.534 38.8699 131.693 39.0148C131.853 39.1597 131.932 39.35 131.932 39.5858C131.932 39.8003 131.868 39.9885 131.739 40.1504C131.612 40.3124 131.436 40.4388 131.213 40.5297C130.992 40.6192 130.736 40.6639 130.446 40.6639C130.005 40.6639 129.653 40.5737 129.391 40.3933C129.13 40.2115 128.977 39.9643 128.932 39.6518L129.843 39.605C129.87 39.7371 129.937 39.8379 130.042 39.9075C130.148 39.9757 130.284 40.0098 130.449 40.0098C130.611 40.0098 130.741 39.9793 130.84 39.9182C130.94 39.8557 130.99 39.7754 130.992 39.6774C130.99 39.595 130.955 39.5276 130.885 39.475C130.816 39.421 130.709 39.3798 130.564 39.3514L129.986 39.2385C129.66 39.1746 129.417 39.0638 129.258 38.9061C129.1 38.7484 129.021 38.5474 129.021 38.3031C129.021 38.0929 129.079 37.9118 129.195 37.7598C129.312 37.6078 129.477 37.4906 129.688 37.4082C129.901 37.3259 130.15 37.2847 130.436 37.2847C130.857 37.2847 131.189 37.372 131.431 37.5467C131.674 37.7214 131.816 37.9594 131.856 38.2605Z" fill="#EFAE00"/>
<path d="M133.467 40.6618C133.254 40.6618 133.064 40.6256 132.898 40.5531C132.731 40.4793 132.599 40.3706 132.502 40.2271C132.407 40.0822 132.359 39.9018 132.359 39.6859C132.359 39.5041 132.393 39.3514 132.461 39.2278C132.529 39.1043 132.622 39.0048 132.739 38.9295C132.856 38.8543 132.99 38.7974 133.139 38.7591C133.289 38.7207 133.447 38.6938 133.612 38.6781C133.806 38.6582 133.963 38.6398 134.082 38.6227C134.2 38.6043 134.286 38.5773 134.34 38.5418C134.394 38.5062 134.42 38.4537 134.42 38.3841V38.3713C134.42 38.2364 134.377 38.132 134.29 38.0581C134.205 37.9842 134.083 37.9473 133.925 37.9473C133.759 37.9473 133.626 37.9835 133.528 38.056C133.429 38.127 133.364 38.2165 133.332 38.3244L132.476 38.2563C132.52 38.0574 132.605 37.8855 132.732 37.7406C132.86 37.5943 133.024 37.4821 133.226 37.404C133.428 37.3244 133.663 37.2847 133.929 37.2847C134.115 37.2847 134.292 37.306 134.462 37.3486C134.633 37.3912 134.784 37.4572 134.916 37.5467C135.049 37.6362 135.154 37.7513 135.231 37.8919C135.308 38.0311 135.346 38.198 135.346 38.3926V40.6H134.468V40.1462H134.442C134.389 40.2484 134.317 40.3386 134.227 40.4168C134.137 40.4935 134.029 40.5538 133.903 40.5979C133.777 40.6405 133.632 40.6618 133.467 40.6618ZM133.732 40.0354C133.868 40.0354 133.988 40.0091 134.092 39.9565C134.197 39.9026 134.279 39.8301 134.338 39.7392C134.397 39.6483 134.427 39.5453 134.427 39.4303V39.083C134.398 39.1014 134.358 39.1185 134.308 39.1341C134.258 39.1483 134.202 39.1618 134.14 39.1746C134.078 39.1859 134.016 39.1966 133.953 39.2065C133.891 39.2151 133.835 39.2229 133.784 39.23C133.675 39.2456 133.58 39.2705 133.499 39.3045C133.418 39.3386 133.355 39.3848 133.31 39.443C133.265 39.4999 133.243 39.5709 133.243 39.6561C133.243 39.7797 133.289 39.8741 133.38 39.9395C133.473 40.0034 133.59 40.0354 133.732 40.0354Z" fill="#EFAE00"/>
<path d="M136.989 38.708V40.6H136.064V36.2364H136.963V37.9047H137.002C137.078 37.7115 137.199 37.5602 137.367 37.4509C137.535 37.3401 137.746 37.2847 138 37.2847C138.231 37.2847 138.433 37.3344 138.606 37.4338C138.78 37.5318 138.914 37.6732 139.01 37.8578C139.107 38.041 139.155 38.2605 139.153 38.5162V40.6H138.228V38.6781C138.229 38.4764 138.177 38.3195 138.071 38.2072C137.967 38.095 137.821 38.0389 137.632 38.0389C137.506 38.0389 137.395 38.0652 137.298 38.1178C137.202 38.1703 137.127 38.247 137.072 38.3479C137.018 38.4473 136.991 38.5673 136.989 38.708Z" fill="#EFAE00"/>
<path d="M140.833 40.6618C140.62 40.6618 140.43 40.6256 140.264 40.5531C140.097 40.4793 139.966 40.3706 139.868 40.2271C139.773 40.0822 139.725 39.9018 139.725 39.6859C139.725 39.5041 139.759 39.3514 139.827 39.2278C139.895 39.1043 139.988 39.0048 140.105 38.9295C140.223 38.8543 140.356 38.7974 140.505 38.7591C140.656 38.7207 140.814 38.6938 140.979 38.6781C141.173 38.6582 141.329 38.6398 141.448 38.6227C141.567 38.6043 141.653 38.5773 141.706 38.5418C141.76 38.5062 141.787 38.4537 141.787 38.3841V38.3713C141.787 38.2364 141.743 38.132 141.656 38.0581C141.571 37.9842 141.449 37.9473 141.291 37.9473C141.125 37.9473 140.992 37.9835 140.894 38.056C140.795 38.127 140.73 38.2165 140.698 38.3244L139.842 38.2563C139.886 38.0574 139.971 37.8855 140.099 37.7406C140.226 37.5943 140.391 37.4821 140.592 37.404C140.795 37.3244 141.029 37.2847 141.296 37.2847C141.481 37.2847 141.659 37.306 141.828 37.3486C141.999 37.3912 142.15 37.4572 142.282 37.5467C142.415 37.6362 142.52 37.7513 142.597 37.8919C142.674 38.0311 142.712 38.198 142.712 38.3926V40.6H141.835V40.1462H141.809C141.755 40.2484 141.683 40.3386 141.593 40.4168C141.504 40.4935 141.396 40.5538 141.27 40.5979C141.144 40.6405 140.998 40.6618 140.833 40.6618ZM141.098 40.0354C141.234 40.0354 141.354 40.0091 141.459 39.9565C141.563 39.9026 141.645 39.8301 141.704 39.7392C141.764 39.6483 141.793 39.5453 141.793 39.4303V39.083C141.764 39.1014 141.725 39.1185 141.674 39.1341C141.625 39.1483 141.569 39.1618 141.507 39.1746C141.444 39.1859 141.382 39.1966 141.32 39.2065C141.257 39.2151 141.201 39.2229 141.15 39.23C141.042 39.2456 140.947 39.2705 140.866 39.3045C140.785 39.3386 140.722 39.3848 140.677 39.443C140.632 39.4999 140.609 39.5709 140.609 39.6561C140.609 39.7797 140.655 39.8741 140.746 39.9395C140.839 40.0034 140.956 40.0354 141.098 40.0354Z" fill="#EFAE00"/>
<path d="M144.382 40.6618C144.169 40.6618 143.979 40.6256 143.813 40.5531C143.646 40.4793 143.514 40.3706 143.417 40.2271C143.322 40.0822 143.274 39.9018 143.274 39.6859C143.274 39.5041 143.308 39.3514 143.376 39.2278C143.444 39.1043 143.537 39.0048 143.654 38.9295C143.771 38.8543 143.905 38.7974 144.054 38.7591C144.204 38.7207 144.362 38.6938 144.527 38.6781C144.721 38.6582 144.878 38.6398 144.997 38.6227C145.115 38.6043 145.202 38.5773 145.255 38.5418C145.309 38.5062 145.336 38.4537 145.336 38.3841V38.3713C145.336 38.2364 145.292 38.132 145.205 38.0581C145.12 37.9842 144.998 37.9473 144.84 37.9473C144.674 37.9473 144.541 37.9835 144.443 38.056C144.344 38.127 144.279 38.2165 144.247 38.3244L143.391 38.2563C143.435 38.0574 143.52 37.8855 143.648 37.7406C143.775 37.5943 143.939 37.4821 144.141 37.404C144.343 37.3244 144.578 37.2847 144.845 37.2847C145.03 37.2847 145.207 37.306 145.377 37.3486C145.548 37.3912 145.699 37.4572 145.831 37.5467C145.964 37.6362 146.069 37.7513 146.146 37.8919C146.223 38.0311 146.261 38.198 146.261 38.3926V40.6H145.383V40.1462H145.357C145.304 40.2484 145.232 40.3386 145.142 40.4168C145.052 40.4935 144.944 40.5538 144.818 40.5979C144.692 40.6405 144.547 40.6618 144.382 40.6618ZM144.647 40.0354C144.783 40.0354 144.903 40.0091 145.007 39.9565C145.112 39.9026 145.194 39.8301 145.253 39.7392C145.312 39.6483 145.342 39.5453 145.342 39.4303V39.083C145.313 39.1014 145.273 39.1185 145.223 39.1341C145.173 39.1483 145.118 39.1618 145.055 39.1746C144.993 39.1859 144.931 39.1966 144.868 39.2065C144.806 39.2151 144.75 39.2229 144.699 39.23C144.59 39.2456 144.496 39.2705 144.414 39.3045C144.333 39.3386 144.27 39.3848 144.225 39.443C144.181 39.4999 144.158 39.5709 144.158 39.6561C144.158 39.7797 144.204 39.8741 144.295 39.9395C144.388 40.0034 144.505 40.0354 144.647 40.0354Z" fill="#EFAE00"/>
<path d="M147.904 38.708V40.6H146.979V37.3273H147.861V37.9047H147.9C147.974 37.7143 148.098 37.5638 148.272 37.453C148.445 37.3408 148.656 37.2847 148.904 37.2847C149.136 37.2847 149.338 37.3344 149.51 37.4338C149.682 37.5332 149.816 37.6753 149.912 37.8599C150.007 38.0432 150.055 38.2619 150.055 38.5162V40.6H149.13V38.6781C149.131 38.4778 149.079 38.3216 148.973 38.2094C148.868 38.0957 148.722 38.0389 148.537 38.0389C148.412 38.0389 148.302 38.0652 148.206 38.1178C148.112 38.1703 148.038 38.247 147.985 38.3479C147.933 38.4473 147.906 38.5673 147.904 38.708Z" fill="#EFAE00"/>
</svg>
