<svg width="142" height="227" viewBox="0 0 142 227" fill="none" xmlns="http://www.w3.org/2000/svg">
<path d="M142 92.1823C142 115.516 125.525 133.37 113.365 149.164C69.8232 194.171 113.365 149.164 69.8232 194.171C28.6354 149.164 69.8232 194.171 28.6354 149.164C13.7293 134.547 0 115.516 0 92.1823C0 52.9701 31.7878 21.1823 71 21.1823C110.212 21.1823 142 52.9701 142 92.1823Z" fill="#25559B"/>
<path d="M105.912 218.492C105.912 223.041 90.2812 226.729 71 226.729C51.7189 226.729 36.0884 223.041 36.0884 218.492C36.0884 213.942 51.7189 210.254 71 210.254C90.2812 210.254 105.912 213.942 105.912 218.492Z" fill="#D9D9D9"/>
<path fill-rule="evenodd" clip-rule="evenodd" d="M6.27627 64.3315C3.67655 64.3315 1.56908 62.224 1.56908 59.6243V38.442C1.56908 35.8423 3.67655 33.7348 6.27627 33.7348H12.1493C14.8201 14.6705 31.1941 0 50.9945 0H91.7901C111.59 0 127.965 14.6705 130.635 33.7348H137.293C139.893 33.7348 142 35.8423 142 38.442V59.6243C142 62.224 139.893 64.3315 137.293 64.3315H6.27627ZM49.4254 17.2597C49.4254 14.66 51.5329 12.5525 54.1326 12.5525H88.652C91.2517 12.5525 93.3592 14.66 93.3592 17.2597C93.3592 19.8594 91.2517 21.9669 88.652 21.9669H54.1326C51.5329 21.9669 49.4254 19.8594 49.4254 17.2597ZM27.3567 31.272C27.4141 30.4498 28.0978 29.8122 28.922 29.8122H113.879C114.697 29.8122 115.377 30.4394 115.443 31.2539L117.934 61.8506C118.008 62.7644 117.287 63.547 116.37 63.547H26.7874C25.8777 63.547 25.1588 62.776 25.2221 61.8687L27.3567 31.272Z" fill="#25559B"/>
<path d="M42.7006 79.4011C40.6275 78.7831 38.4448 79.9602 37.8229 82.033C37.2004 84.1081 38.3779 86.2949 40.453 86.9175C41.0508 87.0968 41.7791 87.2011 42.3652 87.2733C43.035 87.3557 43.8494 87.4328 44.7689 87.5052C46.6125 87.6504 48.9976 87.786 51.7288 87.9065C57.1976 88.1478 64.1557 88.3327 71.1547 88.4066C78.1486 88.4804 85.2271 88.444 90.9262 88.2387C93.7705 88.1362 96.3198 87.9901 98.3638 87.7878C100.196 87.6065 102.202 87.3368 103.534 86.7657C105.525 85.9123 106.448 83.6063 105.594 81.615C104.741 79.6238 102.435 78.7014 100.444 79.5548L100.449 79.5527C100.459 79.5483 100.464 79.5458 100.464 79.5458C100.464 79.5458 100.458 79.547 100.447 79.5502L100.444 79.5509C100.383 79.5679 100.177 79.6251 99.761 79.6991C99.2207 79.7953 98.4984 79.8909 97.5911 79.9806C95.7799 80.1599 93.4136 80.2988 90.6437 80.3986C85.1141 80.5978 78.1691 80.6349 71.2376 80.5617C64.3112 80.4885 57.442 80.3056 52.0745 80.0688C49.3875 79.9503 47.1021 79.8193 45.3847 79.6841C44.7417 79.6334 44.1947 79.5835 43.7461 79.5352C43.594 79.5188 43.4534 79.5027 43.3241 79.4868C43.122 79.4619 42.9736 79.4405 42.8699 79.4243C42.791 79.4121 42.7381 79.4029 42.7071 79.3975C42.684 79.3935 42.673 79.3922 42.673 79.3922C42.673 79.3922 42.68 79.3948 42.6935 79.3989L42.6962 79.3997L42.7006 79.4011Z" fill="white"/>
<path d="M37.8229 94.5855C38.4448 92.5127 40.6276 91.3355 42.7006 91.9535L42.6962 91.9522C42.681 91.9476 42.673 91.9447 42.673 91.9447C42.673 91.9447 42.684 91.946 42.7071 91.95C42.7787 91.9624 42.968 91.9954 43.3241 92.0393C43.5849 92.0713 43.892 92.1045 44.2446 92.1382C44.5829 92.1705 44.9631 92.2033 45.3847 92.2365C47.1021 92.3718 49.3875 92.5028 52.0745 92.6213C57.442 92.8581 64.3112 93.041 71.2376 93.1142C78.1691 93.1874 85.1141 93.1503 90.6437 92.9511C93.4136 92.8513 95.7799 92.7124 97.5911 92.5331C98.4984 92.4434 99.2207 92.3478 99.761 92.2516C100.177 92.1775 100.383 92.1204 100.444 92.1034C100.457 92.0997 100.464 92.0982 100.464 92.0982C100.464 92.0982 100.463 92.099 100.46 92.1001L100.444 92.1073C102.435 91.2539 104.741 92.1763 105.594 94.1675C106.448 96.1588 105.525 98.4649 103.534 99.3182C102.202 99.8894 100.196 100.159 98.3638 100.34C96.3198 100.543 93.7705 100.689 90.9262 100.791C85.2271 100.997 78.1486 101.033 71.1547 100.959C64.1557 100.885 57.1976 100.7 51.7288 100.459C48.9976 100.339 46.6125 100.203 44.7689 100.058C43.8494 99.9853 43.035 99.9083 42.3652 99.8258C41.7791 99.7535 41.0508 99.6494 40.453 99.4699C38.3779 98.8474 37.2004 96.6606 37.8229 94.5855Z" fill="white"/>
<path d="M28.922 29.8122C28.0978 29.8122 27.4141 30.4498 27.3567 31.272L25.2221 61.8687C25.1588 62.776 25.8777 63.547 26.7874 63.547H116.37C117.287 63.547 118.008 62.7644 117.934 61.8506L115.443 31.2539C115.377 30.4394 114.697 29.8122 113.879 29.8122H28.922Z" fill="white"/>
<path d="M54.1326 12.5525C51.5329 12.5525 49.4254 14.66 49.4254 17.2597C49.4254 19.8594 51.5329 21.9669 54.1326 21.9669H88.652C91.2517 21.9669 93.3592 19.8594 93.3592 17.2597C93.3592 14.66 91.2517 12.5525 88.652 12.5525H54.1326Z" fill="white"/>
<path d="M19.9555 84.708C19.1111 84.708 18.2856 84.9693 17.5836 85.4588C16.8815 85.9483 16.3343 86.6441 16.0111 87.4581C15.688 88.2721 15.6034 89.1678 15.7682 90.032C15.9329 90.8961 16.3395 91.6899 16.9366 92.3129C17.5337 92.9359 18.2944 93.3602 19.1226 93.5321C19.9507 93.704 20.8091 93.6158 21.5893 93.2786C22.3694 92.9414 23.0361 92.3704 23.5053 91.6378C23.9744 90.9053 24.2248 90.044 24.2248 89.1629C24.2235 87.9818 23.7733 86.8495 22.9729 86.0143C22.1725 85.1792 21.0874 84.7094 19.9555 84.708ZM19.9555 92.8077C19.2646 92.8077 18.5892 92.594 18.0148 92.1935C17.4404 91.793 16.9927 91.2237 16.7283 90.5577C16.4639 89.8917 16.3947 89.1588 16.5295 88.4518C16.6643 87.7448 16.997 87.0953 17.4855 86.5856C17.974 86.0758 18.5964 85.7287 19.274 85.588C19.9516 85.4474 20.6539 85.5196 21.2922 85.7955C21.9305 86.0713 22.476 86.5385 22.8598 87.1379C23.2437 87.7373 23.4485 88.442 23.4485 89.1629C23.4485 90.1295 23.0805 91.0566 22.4254 91.7402C21.7704 92.4237 20.8819 92.8077 19.9555 92.8077ZM28.0992 89.5182C28.1076 89.2813 28.1076 89.0451 28.0992 88.8095L29.6352 86.8059C29.6733 86.7564 29.6997 86.6983 29.7124 86.6362C29.725 86.5741 29.7235 86.5098 29.7079 86.4485C29.4781 85.5516 29.1352 84.6906 28.6881 83.8879C28.6582 83.8328 28.6163 83.7857 28.5657 83.7505C28.5151 83.7154 28.4574 83.6931 28.3971 83.6854L25.9529 83.402C25.7991 83.2284 25.6389 83.0612 25.4726 82.9008L25.2019 80.3544C25.1946 80.2915 25.1732 80.2312 25.1395 80.1785C25.1058 80.1257 25.0607 80.0819 25.0078 80.0507C24.2395 79.5854 23.4157 79.2279 22.5578 78.9876C22.4991 78.9713 22.4375 78.9695 22.378 78.9825C22.3185 78.9955 22.2628 79.0229 22.2153 79.0625L20.296 80.6653C20.069 80.6558 19.8426 80.6558 19.6168 80.6653L17.6947 79.0625C17.6473 79.0228 17.5916 78.9952 17.5321 78.982C17.4726 78.9688 17.411 78.9704 17.3521 78.9866C16.4933 79.2266 15.6688 79.5844 14.9002 80.0507C14.8473 80.0819 14.8022 80.1257 14.7685 80.1785C14.7348 80.2312 14.7134 80.2915 14.7061 80.3544L14.4345 82.9048C14.2681 83.0653 14.1079 83.2324 13.9542 83.406L11.5139 83.6885C11.4535 83.6961 11.3958 83.7184 11.3452 83.7536C11.2947 83.7887 11.2527 83.8358 11.2228 83.891C10.7768 84.6926 10.4343 85.5522 10.204 86.4474C10.1883 86.5087 10.1866 86.573 10.1991 86.6351C10.2115 86.6972 10.2378 86.7553 10.2758 86.8048L11.8117 88.8075C11.8027 89.0444 11.8027 89.2807 11.8117 89.5162L10.2758 91.5219C10.2376 91.5714 10.2112 91.6295 10.1986 91.6916C10.1859 91.7536 10.1874 91.8179 10.203 91.8793C10.433 92.7754 10.7759 93.6358 11.2228 94.4378C11.2527 94.493 11.2947 94.54 11.3452 94.5752C11.3958 94.6104 11.4535 94.6327 11.5139 94.6403L13.958 94.9238C14.1114 95.0969 14.2724 95.265 14.4383 95.4249L14.71 97.9764C14.7173 98.0393 14.7387 98.0996 14.7724 98.1523C14.8061 98.2051 14.8512 98.2489 14.9041 98.2801C15.6735 98.7443 16.4982 99.1004 17.357 99.3391C17.4157 99.3555 17.4773 99.3573 17.5368 99.3442C17.5963 99.3312 17.652 99.3038 17.6995 99.2642L19.6188 97.6615C19.8458 97.6703 20.0722 97.6703 20.298 97.6615L22.2182 99.2642C22.287 99.3218 22.3726 99.3532 22.4608 99.3533C22.4935 99.3532 22.5261 99.3488 22.5578 99.3401C23.417 99.0999 24.2418 98.7417 25.0107 98.275C25.0636 98.2438 25.1087 98.2 25.1424 98.1473C25.1761 98.0945 25.1975 98.0342 25.2048 97.9713L25.4765 95.4209C25.6424 95.2609 25.8034 95.0929 25.9568 94.9197L28.4019 94.6362C28.4622 94.6286 28.52 94.6063 28.5706 94.5712C28.6211 94.536 28.6631 94.4889 28.693 94.4338C29.1378 93.6309 29.4791 92.7703 29.7079 91.8742C29.7236 91.813 29.7253 91.7487 29.7128 91.6866C29.7003 91.6245 29.6741 91.5664 29.6361 91.5168L28.0992 89.5182ZM28.1157 93.8546L25.7219 94.132C25.6265 94.1431 25.5383 94.1907 25.4745 94.2657C25.2778 94.4974 25.0678 94.7165 24.8458 94.9218C24.7739 94.9883 24.7283 95.0803 24.7177 95.1799L24.4518 97.6767C23.848 98.0249 23.2088 98.3017 22.5462 98.5018L20.6657 96.9315C20.5968 96.8743 20.5112 96.8432 20.4231 96.8434H20.3999C20.1039 96.8626 19.807 96.8626 19.5111 96.8434C19.415 96.8374 19.3203 96.8688 19.2452 96.9315L17.3657 98.5008C16.7027 98.3015 16.0632 98.0254 15.4591 97.6777L15.1932 95.1799C15.1826 95.0803 15.137 94.9883 15.0652 94.9218C14.8431 94.7165 14.6332 94.4974 14.4364 94.2657C14.3726 94.1907 14.2845 94.1431 14.189 94.132L11.7962 93.8546C11.4625 93.2246 11.1973 92.5576 11.0054 91.8661L12.5104 89.904C12.5705 89.8256 12.6006 89.7268 12.5948 89.6266C12.5774 89.3177 12.5774 89.008 12.5948 88.6992C12.6006 88.599 12.5705 88.5001 12.5104 88.4218L11.0064 86.4606C11.1974 85.7688 11.462 85.1015 11.7953 84.4711L14.189 84.1937C14.2845 84.1826 14.3726 84.135 14.4364 84.0601C14.6332 83.8284 14.8431 83.6093 15.0652 83.404C15.137 83.3374 15.1826 83.2454 15.1932 83.1458L15.4591 80.6491C16.0629 80.3009 16.7021 80.0241 17.3648 79.8239L19.2452 81.3942C19.3203 81.457 19.415 81.4884 19.5111 81.4823C19.807 81.4632 20.1039 81.4632 20.3999 81.4823C20.4959 81.4884 20.5906 81.457 20.6657 81.3942L22.5452 79.8249C23.2082 80.0242 23.8477 80.3003 24.4518 80.6481L24.7177 83.1458C24.7283 83.2454 24.7739 83.3374 24.8458 83.404C25.0678 83.6093 25.2778 83.8284 25.4745 84.0601C25.5383 84.135 25.6265 84.1826 25.7219 84.1937L28.1147 84.4711C28.4484 85.1012 28.7137 85.7681 28.9055 86.4596L27.4006 88.4218C27.3404 88.5001 27.3104 88.599 27.3161 88.6992C27.3335 89.008 27.3335 89.3177 27.3161 89.6266C27.3104 89.7268 27.3404 89.8256 27.4006 89.904L28.9045 91.8651C28.7135 92.5569 28.4489 93.2242 28.1157 93.8546Z" fill="#25559B"/>
<path fill-rule="evenodd" clip-rule="evenodd" d="M28.1157 93.8546L25.7219 94.132C25.6265 94.1431 25.5383 94.1907 25.4745 94.2657C25.2778 94.4974 25.0678 94.7165 24.8458 94.9218C24.7739 94.9883 24.7283 95.0803 24.7177 95.1799L24.4518 97.6767C23.848 98.0249 23.2088 98.3017 22.5462 98.5018L20.6657 96.9315C20.5968 96.8743 20.5112 96.8432 20.4231 96.8434H20.3999C20.1039 96.8626 19.807 96.8626 19.5111 96.8434C19.415 96.8374 19.3203 96.8688 19.2452 96.9315L17.3657 98.5008C16.7027 98.3015 16.0632 98.0254 15.4591 97.6777L15.1932 95.1799C15.1826 95.0803 15.137 94.9883 15.0652 94.9218C14.8431 94.7165 14.6332 94.4974 14.4364 94.2657C14.3726 94.1907 14.2845 94.1431 14.189 94.132L11.7962 93.8546C11.4625 93.2246 11.1973 92.5576 11.0054 91.8661L12.5104 89.904C12.5705 89.8256 12.6006 89.7268 12.5948 89.6266C12.5774 89.3177 12.5774 89.008 12.5948 88.6992C12.6006 88.599 12.5705 88.5001 12.5104 88.4218L11.0064 86.4606C11.1974 85.7688 11.462 85.1015 11.7953 84.4711L14.189 84.1937C14.2845 84.1826 14.3726 84.135 14.4364 84.0601C14.6332 83.8284 14.8431 83.6093 15.0652 83.404C15.137 83.3374 15.1826 83.2454 15.1932 83.1458L15.4591 80.6491C16.0629 80.3009 16.7021 80.0241 17.3648 79.8239L19.2452 81.3942C19.3203 81.457 19.415 81.4884 19.5111 81.4823C19.807 81.4632 20.1039 81.4632 20.3999 81.4823C20.4959 81.4884 20.5906 81.457 20.6657 81.3942L22.5452 79.8249C23.2082 80.0242 23.8477 80.3003 24.4518 80.6481L24.7177 83.1458C24.7283 83.2454 24.7739 83.3374 24.8458 83.404C25.0678 83.6093 25.2778 83.8284 25.4745 84.0601C25.5383 84.135 25.6265 84.1826 25.7219 84.1937L28.1147 84.4711C28.4484 85.1012 28.7137 85.7681 28.9055 86.4596L27.4006 88.4218C27.3404 88.5001 27.3104 88.599 27.3161 88.6992C27.3335 89.008 27.3335 89.3177 27.3161 89.6266C27.3104 89.7268 27.3404 89.8256 27.4006 89.904L28.9045 91.8651C28.7135 92.5569 28.4489 93.2242 28.1157 93.8546ZM17.5836 85.4588C18.2856 84.9693 19.1111 84.708 19.9555 84.708C21.0874 84.7094 22.1725 85.1792 22.9729 86.0143C23.7733 86.8495 24.2235 87.9818 24.2248 89.1629C24.2248 90.044 23.9744 90.9053 23.5053 91.6378C23.0361 92.3704 22.3694 92.9414 21.5893 93.2786C20.8091 93.6158 19.9507 93.704 19.1226 93.5321C18.2944 93.3602 17.5337 92.9359 16.9366 92.3129C16.3395 91.6899 15.9329 90.8961 15.7682 90.032C15.6034 89.1678 15.688 88.2721 16.0111 87.4581C16.3343 86.6441 16.8815 85.9483 17.5836 85.4588Z" fill="white"/>
<path fill-rule="evenodd" clip-rule="evenodd" d="M25.7219 94.132L28.1157 93.8546C28.4489 93.2242 28.7135 92.5569 28.9045 91.8651L27.4006 89.904C27.3404 89.8256 27.3104 89.7268 27.3161 89.6266C27.3335 89.3177 27.3335 89.008 27.3161 88.6992C27.3104 88.599 27.3404 88.5001 27.4006 88.4218L28.9055 86.4596C28.7137 85.7681 28.4484 85.1012 28.1147 84.4711L25.7219 84.1937C25.6265 84.1826 25.5383 84.135 25.4745 84.0601C25.2778 83.8284 25.0678 83.6093 24.8458 83.404C24.7739 83.3374 24.7283 83.2454 24.7177 83.1458L24.4518 80.6481C23.8477 80.3003 23.2082 80.0242 22.5452 79.8249L20.6657 81.3942C20.5906 81.457 20.4959 81.4884 20.3999 81.4823C20.1039 81.4632 19.807 81.4632 19.5111 81.4823C19.415 81.4884 19.3203 81.457 19.2452 81.3942L17.3648 79.8239C16.7021 80.0241 16.0629 80.3009 15.4591 80.6491L15.1932 83.1458C15.1826 83.2454 15.137 83.3374 15.0652 83.404C14.8431 83.6093 14.6332 83.8284 14.4364 84.0601C14.3726 84.135 14.2845 84.1826 14.189 84.1937L11.7953 84.4711C11.462 85.1015 11.1974 85.7688 11.0064 86.4606L12.5104 88.4218C12.5705 88.5001 12.6006 88.599 12.5948 88.6992C12.5774 89.008 12.5774 89.3177 12.5948 89.6266C12.6006 89.7268 12.5705 89.8256 12.5104 89.904L11.0054 91.8661C11.1973 92.5576 11.4625 93.2246 11.7962 93.8546L14.189 94.132C14.2845 94.1431 14.3726 94.1907 14.4364 94.2657C14.6332 94.4974 14.8431 94.7165 15.0652 94.9218C15.137 94.9883 15.1826 95.0803 15.1932 95.1799L15.4591 97.6777C16.0632 98.0254 16.7027 98.3015 17.3657 98.5008L19.2452 96.9315C19.3203 96.8688 19.415 96.8374 19.5111 96.8434C19.807 96.8626 20.1039 96.8626 20.3999 96.8434H20.4231C20.5112 96.8432 20.5968 96.8743 20.6657 96.9315L22.5462 98.5018C23.2088 98.3017 23.848 98.0249 24.4518 97.6767L24.7177 95.1799C24.7283 95.0803 24.7739 94.9883 24.8458 94.9218C25.0678 94.7165 25.2778 94.4974 25.4745 94.2657C25.5383 94.1907 25.6265 94.1431 25.7219 94.132ZM19.9555 84.708C19.1111 84.708 18.2856 84.9693 17.5836 85.4588C16.8815 85.9483 16.3343 86.6441 16.0111 87.4581C15.688 88.2721 15.6034 89.1678 15.7682 90.032C15.9329 90.8961 16.3395 91.6899 16.9366 92.3129C17.5337 92.9359 18.2944 93.3602 19.1226 93.5321C19.9507 93.704 20.8091 93.6158 21.5893 93.2786C22.3694 92.9414 23.0361 92.3704 23.5053 91.6378C23.9744 90.9053 24.2248 90.044 24.2248 89.1629C24.2235 87.9818 23.7733 86.8495 22.9729 86.0143C22.1725 85.1792 21.0874 84.7094 19.9555 84.708ZM28.0992 88.8095C28.1076 89.0451 28.1076 89.2813 28.0992 89.5182L29.6361 91.5168C29.6741 91.5664 29.7003 91.6245 29.7128 91.6866C29.7253 91.7487 29.7236 91.813 29.7079 91.8742C29.4791 92.7703 29.1378 93.6309 28.693 94.4338C28.6631 94.4889 28.6211 94.536 28.5706 94.5712C28.52 94.6063 28.4622 94.6286 28.4019 94.6362L25.9568 94.9197C25.8034 95.0929 25.6424 95.2609 25.4765 95.4209L25.2048 97.9713C25.1975 98.0342 25.1761 98.0945 25.1424 98.1473C25.1087 98.2 25.0636 98.2438 25.0107 98.275C24.2418 98.7417 23.417 99.0999 22.5578 99.3401C22.5261 99.3488 22.4935 99.3532 22.4608 99.3533C22.3726 99.3532 22.287 99.3218 22.2182 99.2642L20.298 97.6615C20.0722 97.6703 19.8458 97.6703 19.6188 97.6615L17.6995 99.2642C17.652 99.3038 17.5963 99.3312 17.5368 99.3442C17.4773 99.3573 17.4157 99.3555 17.357 99.3391C16.4982 99.1004 15.6735 98.7443 14.9041 98.2801C14.8512 98.2489 14.8061 98.2051 14.7724 98.1523C14.7387 98.0996 14.7173 98.0393 14.71 97.9764L14.4383 95.4249C14.2724 95.265 14.1114 95.0969 13.958 94.9238L11.5139 94.6403C11.4535 94.6327 11.3958 94.6104 11.3452 94.5752C11.2947 94.54 11.2527 94.493 11.2228 94.4378C10.7759 93.6358 10.433 92.7754 10.203 91.8793C10.1874 91.8179 10.1859 91.7536 10.1986 91.6916C10.2112 91.6295 10.2376 91.5714 10.2758 91.5219L11.8117 89.5162C11.8027 89.2807 11.8027 89.0444 11.8117 88.8075L10.2758 86.8048C10.2378 86.7553 10.2115 86.6972 10.1991 86.6351C10.1866 86.573 10.1883 86.5087 10.204 86.4474C10.4343 85.5522 10.7768 84.6926 11.2228 83.891C11.2527 83.8358 11.2947 83.7887 11.3452 83.7536C11.3958 83.7184 11.4535 83.6961 11.5139 83.6885L13.9542 83.406C14.1079 83.2324 14.2681 83.0653 14.4345 82.9048L14.7061 80.3544C14.7134 80.2915 14.7348 80.2312 14.7685 80.1785C14.8022 80.1257 14.8473 80.0819 14.9002 80.0507C15.6688 79.5844 16.4933 79.2266 17.3521 78.9866C17.411 78.9704 17.4726 78.9688 17.5321 78.982C17.5916 78.9952 17.6473 79.0228 17.6947 79.0625L19.6168 80.6653C19.8426 80.6558 20.069 80.6558 20.296 80.6653L22.2153 79.0625C22.2628 79.0229 22.3185 78.9955 22.378 78.9825C22.4375 78.9695 22.4991 78.9713 22.5578 78.9876C23.4157 79.2279 24.2395 79.5854 25.0078 80.0507C25.0607 80.0819 25.1058 80.1257 25.1395 80.1785C25.1732 80.2312 25.1946 80.2915 25.2019 80.3544L25.4726 82.9008C25.6389 83.0612 25.7991 83.2284 25.9529 83.402L28.3971 83.6854C28.4574 83.6931 28.5151 83.7154 28.5657 83.7505C28.6163 83.7857 28.6582 83.8328 28.6881 83.8879C29.1352 84.6906 29.4781 85.5516 29.7079 86.4485C29.7235 86.5098 29.725 86.5741 29.7124 86.6362C29.6997 86.6983 29.6733 86.7564 29.6352 86.8059L28.0992 88.8095ZM18.0148 92.1935C18.5892 92.594 19.2646 92.8077 19.9555 92.8077C20.8819 92.8077 21.7704 92.4237 22.4254 91.7402C23.0805 91.0566 23.4485 90.1295 23.4485 89.1629C23.4485 88.442 23.2437 87.7373 22.8598 87.1379C22.476 86.5385 21.9305 86.0713 21.2922 85.7955C20.6539 85.5196 19.9516 85.4474 19.274 85.588C18.5964 85.7287 17.974 86.0758 17.4855 86.5856C16.997 87.0953 16.6643 87.7448 16.5295 88.4518C16.3947 89.1588 16.4639 89.8917 16.7283 90.5577C16.9927 91.2237 17.4404 91.793 18.0148 92.1935Z" fill="white"/>
<path d="M122.289 84.708C121.445 84.708 120.619 84.9693 119.917 85.4588C119.215 85.9483 118.668 86.6441 118.345 87.4581C118.022 88.2721 117.937 89.1678 118.102 90.032C118.267 90.8961 118.673 91.6899 119.27 92.3129C119.867 92.9359 120.628 93.3602 121.456 93.5321C122.284 93.704 123.143 93.6158 123.923 93.2786C124.703 92.9414 125.37 92.3704 125.839 91.6378C126.308 90.9053 126.558 90.044 126.558 89.1629C126.557 87.9818 126.107 86.8495 125.307 86.0143C124.506 85.1792 123.421 84.7094 122.289 84.708ZM122.289 92.8077C121.598 92.8077 120.923 92.594 120.348 92.1935C119.774 91.793 119.326 91.2237 119.062 90.5577C118.798 89.8917 118.728 89.1588 118.863 88.4518C118.998 87.7448 119.331 87.0953 119.819 86.5856C120.308 86.0758 120.93 85.7287 121.608 85.588C122.285 85.4474 122.988 85.5196 123.626 85.7955C124.264 86.0713 124.81 86.5385 125.194 87.1379C125.577 87.7373 125.782 88.442 125.782 89.1629C125.782 90.1295 125.414 91.0566 124.759 91.7402C124.104 92.4237 123.216 92.8077 122.289 92.8077ZM130.433 89.5182C130.441 89.2813 130.441 89.0451 130.433 88.8095L131.969 86.8059C132.007 86.7564 132.033 86.6983 132.046 86.6362C132.059 86.5741 132.057 86.5098 132.042 86.4485C131.812 85.5516 131.469 84.6906 131.022 83.8879C130.992 83.8328 130.95 83.7857 130.899 83.7505C130.849 83.7154 130.791 83.6931 130.731 83.6854L128.287 83.402C128.133 83.2284 127.973 83.0612 127.806 82.9008L127.536 80.3544C127.528 80.2915 127.507 80.2312 127.473 80.1785C127.439 80.1257 127.394 80.0819 127.341 80.0507C126.573 79.5854 125.749 79.2279 124.891 78.9876C124.833 78.9713 124.771 78.9695 124.712 78.9825C124.652 78.9955 124.596 79.0229 124.549 79.0625L122.63 80.6653C122.403 80.6558 122.176 80.6558 121.951 80.6653L120.028 79.0625C119.981 79.0228 119.925 78.9952 119.866 78.982C119.806 78.9688 119.745 78.9704 119.686 78.9866C118.827 79.2266 118.003 79.5844 117.234 80.0507C117.181 80.0819 117.136 80.1257 117.102 80.1785C117.068 80.2312 117.047 80.2915 117.04 80.3544L116.768 82.9048C116.602 83.0653 116.442 83.2324 116.288 83.406L113.848 83.6885C113.787 83.6961 113.729 83.7184 113.679 83.7536C113.628 83.7887 113.586 83.8358 113.556 83.891C113.11 84.6926 112.768 85.5522 112.538 86.4474C112.522 86.5087 112.52 86.573 112.533 86.6351C112.545 86.6972 112.571 86.7553 112.609 86.8048L114.145 88.8075C114.136 89.0444 114.136 89.2807 114.145 89.5162L112.609 91.5219C112.571 91.5714 112.545 91.6295 112.532 91.6916C112.52 91.7536 112.521 91.8179 112.537 91.8793C112.767 92.7754 113.11 93.6358 113.556 94.4378C113.586 94.493 113.628 94.54 113.679 94.5752C113.729 94.6104 113.787 94.6327 113.848 94.6403L116.292 94.9238C116.445 95.0969 116.606 95.265 116.772 95.4249L117.044 97.9764C117.051 98.0393 117.072 98.0996 117.106 98.1523C117.14 98.2051 117.185 98.2489 117.238 98.2801C118.007 98.7443 118.832 99.1004 119.691 99.3391C119.749 99.3555 119.811 99.3573 119.87 99.3442C119.93 99.3312 119.986 99.3038 120.033 99.2642L121.952 97.6615C122.179 97.6703 122.406 97.6703 122.632 97.6615L124.552 99.2642C124.621 99.3218 124.706 99.3532 124.794 99.3533C124.827 99.3532 124.86 99.3488 124.891 99.3401C125.751 99.0999 126.576 98.7417 127.344 98.275C127.397 98.2438 127.442 98.2 127.476 98.1473C127.51 98.0945 127.531 98.0342 127.538 97.9713L127.81 95.4209C127.976 95.2609 128.137 95.0929 128.29 94.9197L130.736 94.6362C130.796 94.6286 130.854 94.6063 130.904 94.5712C130.955 94.536 130.997 94.4889 131.027 94.4338C131.472 93.6309 131.813 92.7703 132.042 91.8742C132.057 91.813 132.059 91.7487 132.047 91.6866C132.034 91.6245 132.008 91.5664 131.97 91.5168L130.433 89.5182ZM130.449 93.8546L128.056 94.132C127.96 94.1431 127.872 94.1907 127.808 94.2657C127.611 94.4974 127.401 94.7165 127.179 94.9218C127.108 94.9883 127.062 95.0803 127.051 95.1799L126.785 97.6767C126.182 98.0249 125.543 98.3017 124.88 98.5018L122.999 96.9315C122.93 96.8743 122.845 96.8432 122.757 96.8434H122.734C122.438 96.8626 122.141 96.8626 121.845 96.8434C121.749 96.8374 121.654 96.8688 121.579 96.9315L119.699 98.5008C119.036 98.3015 118.397 98.0254 117.793 97.6777L117.527 95.1799C117.516 95.0803 117.471 94.9883 117.399 94.9218C117.177 94.7165 116.967 94.4974 116.77 94.2657C116.706 94.1907 116.618 94.1431 116.523 94.132L114.13 93.8546C113.796 93.2246 113.531 92.5576 113.339 91.8661L114.844 89.904C114.904 89.8256 114.934 89.7268 114.928 89.6266C114.911 89.3177 114.911 89.008 114.928 88.6992C114.934 88.599 114.904 88.5001 114.844 88.4218L113.34 86.4606C113.531 85.7688 113.796 85.1015 114.129 84.4711L116.523 84.1937C116.618 84.1826 116.706 84.135 116.77 84.0601C116.967 83.8284 117.177 83.6093 117.399 83.404C117.471 83.3374 117.516 83.2454 117.527 83.1458L117.793 80.6491C118.397 80.3009 119.036 80.0241 119.698 79.8239L121.579 81.3942C121.654 81.457 121.749 81.4884 121.845 81.4823C122.141 81.4632 122.438 81.4632 122.734 81.4823C122.83 81.4884 122.924 81.457 122.999 81.3942L124.879 79.8249C125.542 80.0242 126.181 80.3003 126.785 80.6481L127.051 83.1458C127.062 83.2454 127.108 83.3374 127.179 83.404C127.401 83.6093 127.611 83.8284 127.808 84.0601C127.872 84.135 127.96 84.1826 128.056 84.1937L130.448 84.4711C130.782 85.1012 131.047 85.7681 131.239 86.4596L129.734 88.4218C129.674 88.5001 129.644 88.599 129.65 88.6992C129.667 89.008 129.667 89.3177 129.65 89.6266C129.644 89.7268 129.674 89.8256 129.734 89.904L131.238 91.8651C131.047 92.5569 130.783 93.2242 130.449 93.8546Z" fill="#25559B"/>
<path fill-rule="evenodd" clip-rule="evenodd" d="M130.449 93.8546L128.056 94.132C127.96 94.1431 127.872 94.1907 127.808 94.2657C127.611 94.4974 127.401 94.7165 127.179 94.9218C127.108 94.9883 127.062 95.0803 127.051 95.1799L126.785 97.6767C126.182 98.0249 125.543 98.3017 124.88 98.5018L122.999 96.9315C122.93 96.8743 122.845 96.8432 122.757 96.8434H122.734C122.438 96.8626 122.141 96.8626 121.845 96.8434C121.749 96.8374 121.654 96.8688 121.579 96.9315L119.699 98.5008C119.036 98.3015 118.397 98.0254 117.793 97.6777L117.527 95.1799C117.516 95.0803 117.471 94.9883 117.399 94.9218C117.177 94.7165 116.967 94.4974 116.77 94.2657C116.706 94.1907 116.618 94.1431 116.523 94.132L114.13 93.8546C113.796 93.2246 113.531 92.5576 113.339 91.8661L114.844 89.904C114.904 89.8256 114.934 89.7268 114.928 89.6266C114.911 89.3177 114.911 89.008 114.928 88.6992C114.934 88.599 114.904 88.5001 114.844 88.4218L113.34 86.4606C113.531 85.7688 113.796 85.1015 114.129 84.4711L116.523 84.1937C116.618 84.1826 116.706 84.135 116.77 84.0601C116.967 83.8284 117.177 83.6093 117.399 83.404C117.471 83.3374 117.516 83.2454 117.527 83.1458L117.793 80.6491C118.397 80.3009 119.036 80.0241 119.698 79.8239L121.579 81.3942C121.654 81.457 121.749 81.4884 121.845 81.4823C122.141 81.4632 122.438 81.4632 122.734 81.4823C122.83 81.4884 122.924 81.457 122.999 81.3942L124.879 79.8249C125.542 80.0242 126.181 80.3003 126.785 80.6481L127.051 83.1458C127.062 83.2454 127.108 83.3374 127.179 83.404C127.401 83.6093 127.611 83.8284 127.808 84.0601C127.872 84.135 127.96 84.1826 128.056 84.1937L130.448 84.4711C130.782 85.1012 131.047 85.7681 131.239 86.4596L129.734 88.4218C129.674 88.5001 129.644 88.599 129.65 88.6992C129.667 89.008 129.667 89.3177 129.65 89.6266C129.644 89.7268 129.674 89.8256 129.734 89.904L131.238 91.8651C131.047 92.5569 130.783 93.2242 130.449 93.8546ZM119.917 85.4588C120.619 84.9693 121.445 84.708 122.289 84.708C123.421 84.7094 124.506 85.1792 125.307 86.0143C126.107 86.8495 126.557 87.9818 126.558 89.1629C126.558 90.044 126.308 90.9053 125.839 91.6378C125.37 92.3704 124.703 92.9414 123.923 93.2786C123.143 93.6158 122.284 93.704 121.456 93.5321C120.628 93.3602 119.867 92.9359 119.27 92.3129C118.673 91.6899 118.267 90.8961 118.102 90.032C117.937 89.1678 118.022 88.2721 118.345 87.4581C118.668 86.6441 119.215 85.9483 119.917 85.4588Z" fill="white"/>
<path fill-rule="evenodd" clip-rule="evenodd" d="M128.056 94.132L130.449 93.8546C130.783 93.2242 131.047 92.5569 131.238 91.8651L129.734 89.904C129.674 89.8256 129.644 89.7268 129.65 89.6266C129.667 89.3177 129.667 89.008 129.65 88.6992C129.644 88.599 129.674 88.5001 129.734 88.4218L131.239 86.4596C131.047 85.7681 130.782 85.1012 130.448 84.4711L128.056 84.1937C127.96 84.1826 127.872 84.135 127.808 84.0601C127.611 83.8284 127.401 83.6093 127.179 83.404C127.108 83.3374 127.062 83.2454 127.051 83.1458L126.785 80.6481C126.181 80.3003 125.542 80.0242 124.879 79.8249L122.999 81.3942C122.924 81.457 122.83 81.4884 122.734 81.4823C122.438 81.4632 122.141 81.4632 121.845 81.4823C121.749 81.4884 121.654 81.457 121.579 81.3942L119.698 79.8239C119.036 80.0241 118.397 80.3009 117.793 80.6491L117.527 83.1458C117.516 83.2454 117.471 83.3374 117.399 83.404C117.177 83.6093 116.967 83.8284 116.77 84.0601C116.706 84.135 116.618 84.1826 116.523 84.1937L114.129 84.4711C113.796 85.1015 113.531 85.7688 113.34 86.4606L114.844 88.4218C114.904 88.5001 114.934 88.599 114.928 88.6992C114.911 89.008 114.911 89.3177 114.928 89.6266C114.934 89.7268 114.904 89.8256 114.844 89.904L113.339 91.8661C113.531 92.5576 113.796 93.2246 114.13 93.8546L116.523 94.132C116.618 94.1431 116.706 94.1907 116.77 94.2657C116.967 94.4974 117.177 94.7165 117.399 94.9218C117.471 94.9883 117.516 95.0803 117.527 95.1799L117.793 97.6777C118.397 98.0254 119.036 98.3015 119.699 98.5008L121.579 96.9315C121.654 96.8688 121.749 96.8374 121.845 96.8434C122.141 96.8626 122.438 96.8626 122.734 96.8434H122.757C122.845 96.8432 122.93 96.8743 122.999 96.9315L124.88 98.5018C125.543 98.3017 126.182 98.0249 126.785 97.6767L127.051 95.1799C127.062 95.0803 127.108 94.9883 127.179 94.9218C127.401 94.7165 127.611 94.4974 127.808 94.2657C127.872 94.1907 127.96 94.1431 128.056 94.132ZM122.289 84.708C121.445 84.708 120.619 84.9693 119.917 85.4588C119.215 85.9483 118.668 86.6441 118.345 87.4581C118.022 88.2721 117.937 89.1678 118.102 90.032C118.267 90.8961 118.673 91.6899 119.27 92.3129C119.867 92.9359 120.628 93.3602 121.456 93.5321C122.284 93.704 123.143 93.6158 123.923 93.2786C124.703 92.9414 125.37 92.3704 125.839 91.6378C126.308 90.9053 126.558 90.044 126.558 89.1629C126.557 87.9818 126.107 86.8495 125.307 86.0143C124.506 85.1792 123.421 84.7094 122.289 84.708ZM130.433 88.8095C130.441 89.0451 130.441 89.2813 130.433 89.5182L131.97 91.5168C132.008 91.5664 132.034 91.6245 132.047 91.6866C132.059 91.7487 132.057 91.813 132.042 91.8742C131.813 92.7703 131.472 93.6309 131.027 94.4338C130.997 94.4889 130.955 94.536 130.904 94.5712C130.854 94.6063 130.796 94.6286 130.736 94.6362L128.29 94.9197C128.137 95.0929 127.976 95.2609 127.81 95.4209L127.538 97.9713C127.531 98.0342 127.51 98.0945 127.476 98.1473C127.442 98.2 127.397 98.2438 127.344 98.275C126.576 98.7417 125.751 99.0999 124.891 99.3401C124.86 99.3488 124.827 99.3532 124.794 99.3533C124.706 99.3532 124.621 99.3218 124.552 99.2642L122.632 97.6615C122.406 97.6703 122.179 97.6703 121.952 97.6615L120.033 99.2642C119.986 99.3038 119.93 99.3312 119.87 99.3442C119.811 99.3573 119.749 99.3555 119.691 99.3391C118.832 99.1004 118.007 98.7443 117.238 98.2801C117.185 98.2489 117.14 98.2051 117.106 98.1523C117.072 98.0996 117.051 98.0393 117.044 97.9764L116.772 95.4249C116.606 95.265 116.445 95.0969 116.292 94.9238L113.848 94.6403C113.787 94.6327 113.729 94.6104 113.679 94.5752C113.628 94.54 113.586 94.493 113.556 94.4378C113.11 93.6358 112.767 92.7754 112.537 91.8793C112.521 91.8179 112.52 91.7536 112.532 91.6916C112.545 91.6295 112.571 91.5714 112.609 91.5219L114.145 89.5162C114.136 89.2807 114.136 89.0444 114.145 88.8075L112.609 86.8048C112.571 86.7553 112.545 86.6972 112.533 86.6351C112.52 86.573 112.522 86.5087 112.538 86.4474C112.768 85.5522 113.11 84.6926 113.556 83.891C113.586 83.8358 113.628 83.7887 113.679 83.7536C113.729 83.7184 113.787 83.6961 113.848 83.6885L116.288 83.406C116.442 83.2324 116.602 83.0653 116.768 82.9048L117.04 80.3544C117.047 80.2915 117.068 80.2312 117.102 80.1785C117.136 80.1257 117.181 80.0819 117.234 80.0507C118.003 79.5844 118.827 79.2266 119.686 78.9866C119.745 78.9704 119.806 78.9688 119.866 78.982C119.925 78.9952 119.981 79.0228 120.028 79.0625L121.951 80.6653C122.176 80.6558 122.403 80.6558 122.63 80.6653L124.549 79.0625C124.596 79.0229 124.652 78.9955 124.712 78.9825C124.771 78.9695 124.833 78.9713 124.891 78.9876C125.749 79.2279 126.573 79.5854 127.341 80.0507C127.394 80.0819 127.439 80.1257 127.473 80.1785C127.507 80.2312 127.528 80.2915 127.536 80.3544L127.806 82.9008C127.973 83.0612 128.133 83.2284 128.287 83.402L130.731 83.6854C130.791 83.6931 130.849 83.7154 130.899 83.7505C130.95 83.7857 130.992 83.8328 131.022 83.8879C131.469 84.6906 131.812 85.5516 132.042 86.4485C132.057 86.5098 132.059 86.5741 132.046 86.6362C132.033 86.6983 132.007 86.7564 131.969 86.8059L130.433 88.8095ZM120.348 92.1935C120.923 92.594 121.598 92.8077 122.289 92.8077C123.216 92.8077 124.104 92.4237 124.759 91.7402C125.414 91.0566 125.782 90.1295 125.782 89.1629C125.782 88.442 125.577 87.7373 125.194 87.1379C124.81 86.5385 124.264 86.0713 123.626 85.7955C122.988 85.5196 122.285 85.4474 121.608 85.588C120.93 85.7287 120.308 86.0758 119.819 86.5856C119.331 87.0953 118.998 87.7448 118.863 88.4518C118.728 89.1588 118.798 89.8917 119.062 90.5577C119.326 91.2237 119.774 91.793 120.348 92.1935Z" fill="white"/>
</svg>
