<svg width="24" height="24" viewBox="0 0 24 24" fill="none" xmlns="http://www.w3.org/2000/svg">
<path fill-rule="evenodd" clip-rule="evenodd" d="M13.0001 3C13.0001 2.73478 12.8947 2.48043 12.7072 2.29289C12.5197 2.10536 12.2653 2 12.0001 2C11.7349 2 11.4805 2.10536 11.293 2.29289C11.1055 2.48043 11.0001 2.73478 11.0001 3V3.75H10.4431C9.37113 3.74993 8.33943 4.15839 7.55803 4.89224C6.77662 5.62608 6.30426 6.63014 6.2371 7.7L6.0161 11.234C5.93067 12.5812 5.47835 13.8794 4.7081 14.988C4.54874 15.2171 4.45136 15.4835 4.42545 15.7613C4.39953 16.0392 4.44596 16.319 4.56022 16.5736C4.67447 16.8281 4.85267 17.0488 5.07747 17.2142C5.30227 17.3795 5.56604 17.4838 5.8431 17.517L9.2501 17.925V19C9.2501 19.7293 9.53983 20.4288 10.0556 20.9445C10.5713 21.4603 11.2708 21.75 12.0001 21.75C12.7294 21.75 13.4289 21.4603 13.9446 20.9445C14.4604 20.4288 14.7501 19.7293 14.7501 19V17.925L18.1571 17.516C18.434 17.4827 18.6976 17.3784 18.9223 17.2131C19.1469 17.0478 19.325 16.8273 19.4393 16.5729C19.5535 16.3184 19.6 16.0388 19.5742 15.7611C19.5484 15.4834 19.4512 15.2171 19.2921 14.988C18.5219 13.8794 18.0695 12.5812 17.9841 11.234L17.7631 7.701C17.6962 6.63096 17.2239 5.62665 16.4425 4.8926C15.6611 4.15855 14.6292 3.74995 13.5571 3.75H13.0001V3ZM10.7501 19C10.7501 19.3315 10.8818 19.6495 11.1162 19.8839C11.3506 20.1183 11.6686 20.25 12.0001 20.25C12.3316 20.25 12.6496 20.1183 12.884 19.8839C13.1184 19.6495 13.2501 19.3315 13.2501 19V18.25H10.7501V19Z" fill="#25559B"/>
</svg>
